<?xml version="1.0" encoding="utf-8" ?><svg xmlns="http://www.w3.org/2000/svg" xmlns:xlink="http://www.w3.org/1999/xlink" width="1024" height="1024" viewBox="0 0 1024 1024"><path fill="#F9F9F9" d="M0 0L1024 0L1024 1024L0 1024L0 0Z"/><defs><linearGradient id="gradient_0" gradientUnits="userSpaceOnUse" x1="536.35132" y1="945.13898" x2="488.2106" y2="77.969719"><stop offset="0" stop-color="#127ADF"/><stop offset="1" stop-color="#33ACFB"/></linearGradient></defs><path fill="url(#gradient_0)" d="M274.843 89.216C284.044 88.6418 296.86 88.9825 306.299 88.9803L362.868 88.9789L538.266 88.9874L681.24 88.9964C750.536 89.0065 807.529 83.8732 864.393 130.968C938.439 192.293 930.333 278.757 930.349 365.341L930.354 525.312L930.368 666.826C930.359 705.758 931.757 744.339 925.353 782.727C914.588 847.251 870.723 900.642 808.925 922.584C788.92 929.687 771.224 932.397 750.121 934.339C748.336 934.494 746.55 934.631 744.762 934.749C731.121 935.652 717.189 935.51 703.507 935.516L649.487 935.512L481.238 935.518L348.82 935.523C316.858 935.518 275.185 936.952 244.728 931.116C212.744 925.284 182.931 910.915 158.443 889.53C86.2806 826.084 95.0179 745.346 95.0108 658.198L95.0039 496.357L95.0001 350.054C94.9997 310.226 93.1644 270.663 100.617 231.464C114.131 160.382 170.792 105.909 241.547 92.9241C253.092 90.8053 263.103 89.938 274.843 89.216Z"/><path fill="#FED72B" d="M341.116 318.012C351.639 218.622 437.948 153.507 536.228 164.328C581.886 169.581 623.582 192.773 652.126 228.794C681.943 266.324 691.844 313.71 686.024 360.86C680.597 404.834 659.455 442.414 625.375 470.636C568.472 517.76 477.915 523.392 418.095 477.45C417.765 474.747 417.953 466.299 417.957 463.157L418.009 434.648L418.023 415.844C417.724 396.625 418.952 375.662 417.446 356.581C416.058 338.992 405.142 325.367 388.128 319.804C383.538 319.047 380.269 318.671 375.627 318.33C364.299 317.979 352.275 318.649 341.116 318.012Z"/><path fill="#FED72B" d="M341.116 318.012C351.639 218.622 437.948 153.507 536.228 164.328C581.886 169.581 623.582 192.773 652.126 228.794C681.943 266.324 691.844 313.71 686.024 360.86C680.597 404.834 659.455 442.414 625.375 470.636C568.472 517.76 477.915 523.392 418.095 477.45C417.765 474.747 417.953 466.299 417.957 463.157L418.009 434.648L418.023 415.844C419.026 416.384 428.587 426.937 430.468 428.847C474.617 473.683 545.83 473.739 594.324 436.618C620.819 416.218 638.053 386.069 642.189 352.888C646.272 320.6 637.293 288.298 618.187 262.434C575.65 204.852 488.308 194.591 433.171 239.649C407.177 260.891 392.043 286.303 388.128 319.804C383.538 319.047 380.269 318.671 375.627 318.33C364.299 317.979 352.275 318.649 341.116 318.012Z"/><defs><linearGradient id="gradient_1" gradientUnits="userSpaceOnUse" x1="509.38962" y1="197.89133" x2="521.97919" y2="474.7056"><stop offset="0" stop-color="#FF9D11"/><stop offset="1" stop-color="#FFB710"/></linearGradient></defs><path fill="url(#gradient_1)" d="M375.627 318.33C383.685 241.089 454.539 190.214 530.001 198.055C567.176 201.973 601.278 220.481 624.822 249.517C649.974 280.651 657.775 315.736 653.796 355.129C650.157 391.154 629.935 423.46 601.866 445.846C573.099 468.535 536.606 479.085 500.17 475.247C475.038 472.283 451.216 462.427 431.337 446.769C426.86 443.302 420.554 436.44 418.009 434.648L418.023 415.844C419.026 416.384 428.587 426.937 430.468 428.847C474.617 473.683 545.83 473.739 594.324 436.618C620.819 416.218 638.053 386.069 642.189 352.888C646.272 320.6 637.293 288.298 618.187 262.434C575.65 204.852 488.308 194.591 433.171 239.649C407.177 260.891 392.043 286.303 388.128 319.804C383.538 319.047 380.269 318.671 375.627 318.33Z"/><path fill="#F7820F" d="M505.96 264.661C506.558 245.678 499.908 238.226 523.949 240.45C524.059 247.256 523.633 257.545 524.353 263.807C524.801 263.826 525.249 263.853 525.696 263.888C540.218 265.031 550.069 271.02 559.47 282C562.241 285.237 565.099 288.748 564.728 293.124C563.974 294.86 562.12 295.974 560.566 297.171C557.454 300.643 549.234 303.354 544.558 304.023C543.29 302.96 539.871 299.338 538.578 297.979C532.855 291.962 528.74 290.375 521.258 287.335C510.123 286.278 494.212 288.471 492.812 302.395C492.474 305.761 493.158 309.116 495.501 311.697C503.081 319.645 519.726 322.865 530.243 326.056C552.782 332.894 571.65 344.089 570.84 370.34C570.541 380.041 566.472 388.986 559.91 396.142C557.125 404.743 531.523 415.773 523.913 411.154C524.069 417.764 524.238 425.699 524.051 432.272C517.969 433.68 512.914 434.036 506.677 432.947C506.079 430.265 506.574 416.912 506.668 413.137C495.632 413.185 474.075 403.16 467.647 393.49C462.939 387.714 461.376 385.178 459.693 377.856C463.497 375.167 476.293 368.7 480.64 367.397C486.405 372.302 490.629 379.434 497.561 383.247C508.903 389.485 526.894 390.502 536.941 381.269C541.734 376.865 542.11 371.286 542.209 365.21C535.1 351.74 524.042 350.005 510.503 346.849C492.88 342.741 470.106 333.537 466.574 313.391C461.896 286.711 481.248 269.131 505.96 264.661Z"/><path fill="#FEAC2E" d="M467.647 393.49C471.242 394.598 474.472 398.222 477.795 400.333C488.021 406.829 495.327 409.082 506.873 410.907C507.08 415.32 507.291 428.782 506.677 432.947C506.079 430.265 506.574 416.912 506.668 413.137C495.632 413.185 474.075 403.16 467.647 393.49Z"/><path fill="#FEAC2E" d="M523.913 411.154C525.258 410.256 532.236 410.011 535.373 409.045C545.697 405.865 551.33 402.218 559.91 396.142C557.125 404.743 531.523 415.773 523.913 411.154Z"/><path fill="#FEAC2E" d="M521.258 287.335C531.078 286.266 539.455 294.786 544.676 302.093C551.099 300.929 555.518 298.19 560.566 297.171C557.454 300.643 549.234 303.354 544.558 304.023C543.29 302.96 539.871 299.338 538.578 297.979C532.855 291.962 528.74 290.375 521.258 287.335Z"/><path fill="#FE6C78" d="M341.116 318.012C352.275 318.649 364.299 317.979 375.627 318.33C380.269 318.671 383.538 319.047 388.128 319.804C405.142 325.367 416.058 338.992 417.446 356.581C418.952 375.662 417.724 396.625 418.023 415.844L418.009 434.648L417.957 463.157C417.953 466.299 417.765 474.747 418.095 477.45C417.727 487.355 417.987 498.774 417.989 508.773L417.968 563.445C417.968 567.352 417.672 572.48 418.001 576.219C420.537 605.022 409.855 634.39 375.712 634.532C342.019 634.672 306.107 634.551 271.321 634.537L239.243 634.528C222.48 634.514 208.531 635.093 195.491 622.239C186.784 613.656 184.065 603.621 183.953 591.729L184.023 425.824L184 378.879C183.973 370.927 183.119 358.732 184.562 351.211C192.143 311.695 231.627 318.053 261.243 318.059L341.116 318.012Z"/><path fill="#F14E5E" d="M236.493 345.679C241.529 345.181 254.745 345.438 260.252 345.423L307.062 345.391L346.035 345.403C357.587 345.404 371.615 343.541 381.052 351.085C392.492 360.028 390.558 370.739 391.126 382.95C391.964 401.002 389.987 417.616 367.827 420.082C360.985 420.531 351.953 420.264 344.865 420.321C325.409 420.421 305.954 420.364 286.499 420.153L254.007 420.179C243.061 420.196 231.016 421.62 221.87 414.629C209.585 405.237 212.778 390.066 212.286 376.758C211.69 360.657 219.395 347.514 236.493 345.679Z"/><path fill="#FEE6C1" d="M234.582 360.596C249.367 359.608 273.077 360.306 288.696 360.347C314.714 360.416 342.641 359.765 368.492 360.536C375.919 364.707 376.292 369.737 376.227 377.75C376.17 384.818 376.196 391.867 375.81 398.934L375.73 399.056C373.302 402.865 372.517 403.344 368.419 405.363C361.4 405.954 349.589 405.614 342.316 405.615L293.89 405.64L257.096 405.733C249.552 405.749 232.556 407.393 228.891 400.544C225.467 394.147 226.788 375.282 227.492 367.481C227.742 364.708 232.43 361.714 234.582 360.596Z"/><path fill="#F14E5E" d="M363.683 505.566C375.811 504.514 386.543 513.378 387.802 525.486C389.062 537.594 380.384 548.477 368.299 549.944C360.295 550.916 352.39 547.494 347.62 540.993C342.851 534.493 341.959 525.924 345.289 518.581C348.618 511.238 355.65 506.262 363.683 505.566Z"/><path fill="#F14E5E" d="M238.128 505.567C250.24 504.856 260.672 514.017 261.533 526.119C262.394 538.222 253.363 548.767 241.272 549.777C233.316 550.442 225.618 546.776 221.119 540.182C216.62 533.587 216.015 525.082 219.535 517.917C223.056 510.752 230.158 506.035 238.128 505.567Z"/><path fill="#F14E5E" d="M363.316 563.519C375.548 562.172 386.531 571.055 387.772 583.298C389.012 595.54 380.034 606.446 367.781 607.58C355.678 608.7 344.934 599.855 343.708 587.762C342.483 575.669 351.234 564.849 363.316 563.519Z"/><path fill="#F14E5E" d="M238.355 563.545C250.482 562.843 260.907 572.052 261.706 584.173C262.506 596.294 253.381 606.793 241.266 607.689C229.014 608.596 218.369 599.344 217.561 587.085C216.752 574.825 226.089 564.256 238.355 563.545Z"/><path fill="#F14E5E" d="M300.75 505.811C312.8 504.852 323.379 513.765 324.479 525.803C325.58 537.841 316.791 548.524 304.767 549.765C296.863 550.581 289.13 547.085 284.521 540.611C279.913 534.137 279.14 525.686 282.499 518.484C285.857 511.282 292.828 506.442 300.75 505.811Z"/><path fill="#F14E5E" d="M236.678 444.068C248.673 442.52 259.679 450.916 261.355 462.894C263.031 474.871 254.754 485.966 242.795 487.771C234.944 488.955 227.062 485.831 222.155 479.589C217.248 473.347 216.073 464.951 219.078 457.601C222.082 450.252 228.804 445.084 236.678 444.068Z"/><path fill="#F14E5E" d="M360.694 444.534C372.549 441.726 384.435 449.065 387.237 460.922C390.038 472.779 382.693 484.661 370.834 487.456C358.985 490.248 347.114 482.91 344.315 471.062C341.516 459.214 348.847 447.339 360.694 444.534Z"/><path fill="#F14E5E" d="M300.012 444.09C312.117 442.702 323.049 451.406 324.408 463.515C325.767 475.623 317.037 486.534 304.925 487.864C292.854 489.19 281.988 480.495 280.634 468.428C279.279 456.36 287.948 445.473 300.012 444.09Z"/><path fill="#F14E5E" d="M299.374 563.706C311.43 562.043 322.544 570.485 324.178 582.544C325.811 594.603 317.344 605.697 305.281 607.303C293.258 608.903 282.208 600.47 280.58 588.451C278.952 576.431 287.359 565.362 299.374 563.706Z"/><defs><linearGradient id="gradient_2" gradientUnits="userSpaceOnUse" x1="749.1535" y1="629.42224" x2="748.8515" y2="570.55182"><stop offset="0" stop-color="#D43531"/><stop offset="1" stop-color="#F05153"/></linearGradient></defs><path fill="url(#gradient_2)" d="M681.526 508.461C685.633 508.282 693.577 509.089 698.533 509.123L745.11 509.07C754.663 509.081 768.604 509.431 777.909 508.669C780.486 509.801 786.451 509.466 789.531 509.462C795.983 509.494 802.435 509.412 808.884 509.216C816.571 508.953 824.705 508.291 832.22 510.324C843.815 513.461 853.965 525.723 855.374 537.6C856.028 546.121 852.789 552.358 847.821 558.827C844.07 563.71 834.506 568.562 833.45 570.35C843.804 570.285 850.66 572.03 858.157 579.196C869.714 590.245 868.626 607.667 857.389 618.547C844.967 630.575 830.42 629.607 814.358 629.871C804.203 630.039 794.261 629.996 784.223 630.106C749.216 630.77 714.202 630.979 679.19 630.733C663.904 630.581 652.018 631.529 640.329 619.746C628.562 607.882 629.782 589.933 641.825 578.849C651.481 569.961 662.177 569.751 674.652 570.433C673.45 569.342 664.589 564.976 661.956 563.161C653.067 557.034 650.606 552.073 648.433 541.875L648.392 539.343C648.258 531.363 651.368 523.67 657.009 518.023C663.925 511.137 671.954 508.527 681.526 508.461Z"/><path fill="#22EA53" d="M681.526 508.461C685.633 508.282 693.577 509.089 698.533 509.123L745.11 509.07C754.663 509.081 768.604 509.431 777.909 508.669C780.486 509.801 786.451 509.466 789.531 509.462C795.983 509.494 802.435 509.412 808.884 509.216C816.571 508.953 824.705 508.291 832.22 510.324C843.815 513.461 853.965 525.723 855.374 537.6C856.028 546.121 852.789 552.358 847.821 558.827C844.07 563.71 834.506 568.562 833.45 570.35C823.558 570.782 812.711 570.585 802.75 570.63C781.847 570.758 760.943 570.736 740.04 570.563C718.189 570.462 696.384 571.519 674.652 570.433C673.45 569.342 664.589 564.976 661.956 563.161C653.067 557.034 650.606 552.073 648.433 541.875L648.392 539.343C648.258 531.363 651.368 523.67 657.009 518.023C663.925 511.137 671.954 508.527 681.526 508.461Z"/><path fill="#19C941" d="M855.374 537.6C856.028 546.121 852.789 552.358 847.821 558.827C844.07 563.71 834.506 568.562 833.45 570.35C823.558 570.782 812.711 570.585 802.75 570.63C781.847 570.758 760.943 570.736 740.04 570.563C718.189 570.462 696.384 571.519 674.652 570.433C673.45 569.342 664.589 564.976 661.956 563.161C653.067 557.034 650.606 552.073 648.433 541.875C649.574 542.581 652.865 545.311 653.592 545.415C675.604 548.581 704.225 547.179 726.173 547.504C756.117 547.728 786.124 549.359 816.061 548.482C824.242 548.242 851.626 546.855 855.374 537.6Z"/><path fill="#FEAC2E" d="M778.39 383.933C788.849 382.942 797.26 383.895 805.681 390.648C822.647 404.256 822.347 432.104 802.466 443.049L802.139 443.912C813.554 443.946 819.798 444.511 828.573 453.164C834.957 459.461 837.914 467.392 838.81 476.217C838.978 484.818 836.585 490.74 830.832 497.159C818.776 510.611 795.321 507.293 777.909 508.669C768.604 509.431 754.663 509.081 745.11 509.07L698.533 509.123C693.577 509.089 685.633 508.282 681.526 508.461C679.48 507.502 677.478 506.453 675.526 505.317C665.849 499.577 662.813 492.869 660.194 482.595C659.291 474.003 661.96 466.367 667.293 459.749C676.731 448.035 683.842 448.985 697.12 447.543C695.806 446.517 693.511 445.071 692.032 444.033C686.001 439.801 682.212 432.043 681.156 424.833C679.901 416.436 682.08 407.887 687.202 401.115C695.578 389.995 709.003 388.088 722.122 386.207C724.836 386.764 772.949 384.908 778.39 383.933Z"/><path fill="#FE5B3F" d="M778.39 383.933C788.849 382.942 797.26 383.895 805.681 390.648C822.647 404.256 822.347 432.104 802.466 443.049L802.139 443.912C795.432 445.228 699.587 448.239 697.12 447.543C695.806 446.517 693.511 445.071 692.032 444.033C686.001 439.801 682.212 432.043 681.156 424.833C679.901 416.436 682.08 407.887 687.202 401.115C695.578 389.995 709.003 388.088 722.122 386.207C724.836 386.764 772.949 384.908 778.39 383.933Z"/><path fill="#F7820F" d="M660.194 482.595C667.809 482.483 678.414 488.315 688.571 488.348C719.351 488.449 750.255 487.423 780.964 485.303C795.594 484.294 810.551 483.004 825.013 480.609C829.308 479.907 833.894 477.546 838.244 476.366L838.81 476.217C838.978 484.818 836.585 490.74 830.832 497.159C818.776 510.611 795.321 507.293 777.909 508.669C768.604 509.431 754.663 509.081 745.11 509.07L698.533 509.123C693.577 509.089 685.633 508.282 681.526 508.461C679.48 507.502 677.478 506.453 675.526 505.317C665.849 499.577 662.813 492.869 660.194 482.595Z"/><path fill="#F9F9F9" d="M460.268 684.705C469.094 684.465 477.904 684.282 486.663 684.979C509.735 686.816 523.384 707.232 520.287 729.468C518.76 740.43 514.397 747.351 505.719 754.102C501.683 756.681 497.232 759.201 492.513 760.147C486.014 761.451 459.051 763.007 454.194 759.856C453.43 758.548 452.877 755.639 452.803 754.065C452.285 743.065 452.513 731.726 452.504 720.682C452.662 710.418 452.187 700.081 452.797 689.839C453.07 685.261 456.699 685.071 460.268 684.705Z"/><path fill="#1A87E6" d="M469.304 700.029C478.557 699.739 489.352 698.623 496.664 705.354C506.851 714.733 505.988 729.636 497.318 739.577C488.978 747.311 479.935 746.16 469.364 745.968C468.592 736.264 468.924 710.091 469.304 700.029Z"/><path fill="#F14E5E" d="M722.122 386.207C722.024 376.216 721.989 366.225 722.015 356.234C722.038 348.833 721.705 340.708 723.113 333.521C727.118 313.486 756.761 306.749 770.564 320.836C777.231 327.639 778.582 332.755 778.648 342.03C778.748 355.953 778.012 370.031 778.39 383.933C772.949 384.908 724.836 386.764 722.122 386.207Z"/><path fill="#F9F9F9" d="M541.805 684.694C562.079 684.183 592.845 681.698 590.021 714.246C589.234 723.313 583.508 727.313 576.699 732.346C578.534 735.73 580.938 739.35 583.083 742.552C591.709 755.43 595.477 762.306 576.035 760.925C575.012 759.906 574.114 758.737 573.199 757.615C568.422 749.742 563.553 741.925 558.593 734.166C556.07 734.041 553.61 733.703 551.235 734.41C547.731 738.6 551.195 751.641 549.627 757.605C549.216 759.166 548.418 760.514 546.945 761.299C544.407 762.65 539.846 761.846 537.233 760.857C535.927 760.363 535.257 759.24 534.844 757.955C533.66 754.268 533.532 689.668 534.903 687.576C536.497 685.146 539.18 685.009 541.805 684.694Z"/><path fill="#1A87E6" d="M550.241 700.061C553.52 699.821 557.009 699.697 560.288 699.832C570.611 700.258 577.991 706.276 570.954 716.256C564.886 720.171 557.373 719.096 550.107 718.962C549.923 713.315 549.732 705.64 550.241 700.061Z"/><path fill="#F9F9F9" d="M671.377 684.523C673.559 684.42 677.176 684.321 678.894 685.761C685.431 691.237 691.019 699.126 696.337 705.734C702.446 713.326 708.631 720.857 714.891 728.325C715.172 721.021 713.732 689.164 716.676 685.704C719.815 683.942 729.304 683.715 730.677 686.702C732.417 690.49 732.083 702.78 732.011 706.903C731.71 724.098 732.718 741.155 731.437 758.226C731.323 759.747 729.36 760.876 728.179 761.511C726.97 761.698 725.75 761.809 724.527 761.843C718.241 761.974 713.744 753.478 709.907 749.226C701.458 739.861 693.646 727.299 684.749 718.555C683.381 725.871 685.616 756.472 682.831 759.831C681.215 761.78 677.117 761.701 674.751 761.61C671.991 761.503 670.181 760.961 668.324 758.895C667.185 755.667 667.037 692.311 668.134 687.219C669.224 685.557 669.662 685.46 671.377 684.523Z"/><path fill="#F9F9F9" d="M518.257 788.984C520.501 788.948 523.42 789.009 525.218 790.462C537.667 800.522 550.122 821.834 561.478 832.432C562.594 824.324 560.804 794.216 563.388 790.913C567.124 788.573 574.745 788.239 577.626 792.145C579.692 800.091 578.294 850.774 578.135 862.528C578.114 864.022 576.21 865.313 574.9 866.111C572.461 866.377 568.715 866.933 566.807 865.08C553.909 852.555 543.94 836.207 531.703 823.193L531.124 822.583C530.896 829.017 532.594 861.463 529.288 864.597C527.354 866.431 522.913 866.398 520.437 866.108C518.034 865.827 516.259 865.193 514.71 863.307C513.725 859.509 513.437 795.425 514.464 791.595C515.464 790.045 516.566 789.768 518.257 788.984Z"/><path fill="#F9F9F9" d="M391.086 789.645C403.988 789.027 423.108 787.467 433.035 796.566C443.897 806.521 443.799 825.649 431.662 834.651C424.461 839.992 418.132 840.45 409.625 840.794L401.006 841.048C400.925 846.63 401.288 852.231 401.178 857.806C401.128 860.357 400.248 865.407 397.011 865.825C383.48 867.571 384.972 861.78 385.004 851.462C385.061 832.934 384.764 814.683 385.199 796.195C385.307 791.489 386.903 790.615 391.086 789.645Z"/><path fill="#1A87E6" d="M401.093 805.107C409.306 804.677 423.841 802.69 424.084 814.528C424.167 818.53 423.371 819.752 420.731 822.648C416.088 825.662 407.439 826.328 402.152 825.097C400.179 822.994 401.021 808.843 401.093 805.107Z"/><path fill="#F9F9F9" d="M290.391 684.601C302.68 683.853 301.54 689.879 301.464 700.326C301.429 705.226 301.235 710.1 301.556 715.002C311.679 715.617 323.25 715.226 333.402 714.96C333.994 708.373 333.378 691.688 334.294 687.655C334.916 686.778 335.419 686.163 336.373 685.631C338.864 684.242 342.229 684.065 344.927 684.905C346.807 685.491 348.415 686.615 349.264 688.442C350.568 691.249 350.657 755.646 349.34 758.635C348.701 760.084 347.012 760.748 345.681 761.422C331.994 762.314 333.991 759.806 333.754 747.308C333.658 742.253 333.943 736.801 333.561 731.78L333.503 731.05C323.781 730.752 311.176 730.778 301.492 731.133C301.151 735.877 302.431 757.997 299.81 760.113C297.864 761.684 294.302 761.765 291.91 761.657C289.479 761.547 287.865 761.056 286.188 759.283C284.691 753.869 285.512 697.995 285.94 688.153C286.007 686.611 288.826 685.302 290.391 684.601Z"/><path fill="#F9F9F9" d="M242.625 683.699L243.423 683.685C253.711 683.597 262.928 686.739 270.534 694.069C274.866 698.244 276.804 705.174 271.765 709.94C267.897 713.598 260.28 705.565 256.543 703.202C254.089 701.628 251.372 700.507 248.521 699.895C228.658 695.834 212.664 719.28 225.127 736.598C228.905 741.85 234.626 745.374 241.017 746.386C250.563 747.816 257.273 742.996 264.474 737.868C266.757 736.668 270.589 735.653 272.756 737.681C276.351 741.046 274.224 746.685 271.592 749.986C258.572 765.886 232.878 765.853 217.726 753.09C200.999 739.001 199.147 713.308 213.414 696.861C221.194 687.891 230.979 684.522 242.625 683.699Z"/><path fill="#F9F9F9" d="M611.34 684.723C617.813 684.561 645.728 683.102 650.029 686.144C651.712 687.335 652.413 689.078 652.639 691.07C652.893 693.311 652.835 695.534 651.221 697.294C647.495 701.356 627.664 699.436 621.577 699.694C621.228 704.776 621.215 709.875 621.539 714.958C626.3 715.062 645.547 713.754 647.682 717.074C659.17 734.931 629.598 730.402 621.537 730.578C621.192 733.962 621.34 738.159 621.37 741.625C621.369 743.406 621.342 743.661 621.694 745.478C624.743 748.488 645.166 744.959 650.147 747.142C654.9 749.224 655.222 760.063 649.468 760.97C641.261 762.263 632.684 761.082 624.296 761.444C619.94 761.632 610.23 762.181 606.647 760.159C603.002 753.379 604.889 728.669 604.528 720.089C604.142 710.925 604.696 699.858 604.773 690.615C604.808 686.353 607.711 685.269 611.34 684.723Z"/><path fill="#F9F9F9" d="M457.66 789.617C463.921 789.29 493.934 788.319 497.547 791.288C499.005 792.486 499.706 794.824 499.868 796.627C500.034 798.487 499.653 800.436 498.381 801.869C494.397 806.36 474.981 804.233 468.62 804.5C467.918 809.468 468.002 814.211 468.334 819.193C473.606 819.76 492.375 818.099 494.645 821.617C506.091 839.355 476.216 834.813 468.563 835.189C468.401 837.894 468.471 841.356 468.451 844.125L468.556 850.915C476.747 851.391 500.178 847.365 500.614 858.023C501.134 860.947 498.764 866.035 495.226 865.809C488.695 865.393 457.083 867.888 453.386 863.917C452.462 861.378 452.009 858.865 451.82 856.18C451.314 848.968 450.654 795.214 452.519 792.185C453.576 790.468 455.871 790.052 457.66 789.617Z"/><path fill="#F9F9F9" d="M318.425 789.162C328.627 788.734 329.827 791.896 335.238 800.305C337.783 804.258 340.422 808.443 343.147 812.284C345.908 808.446 355.621 791.113 359.335 790.187C389.676 782.616 357.622 816.746 353.349 826.528C358.471 837.633 369.796 848.134 373.599 859.888C375.139 864.646 370.358 865.721 366.996 866.033L366.462 866.033L365.573 866.023C364.796 866.019 361.784 866.032 361.336 865.802C356.041 863.084 346.164 845.804 342.73 840.617C338.412 846.889 330.988 861.791 324.773 865.121C322.009 866.602 318.183 866.763 315.252 865.658C313.921 865.156 312.796 864.145 312.394 862.749C310.475 856.093 328.623 834.547 332.462 826.93L332.779 826.291C328.072 817.332 320.227 808.683 315.46 799.645C312.91 794.811 312.428 790.863 318.425 789.162Z"/><path fill="#F9F9F9" d="M662.935 789.681C668.751 789.316 699.885 788.291 703.189 791.332C704.69 792.715 705.16 795.221 705.324 797.158C705.477 798.946 705.039 800.759 703.785 802.096C699.743 806.405 680.836 804.107 674.476 804.56L673.644 804.623C673.156 810.158 673.122 813.928 673.6 819.42C678.226 819.436 697.521 818.327 699.721 821.532C711.769 839.078 682.502 835.014 674.035 835.075L673.784 843.273C673.813 845.84 673.958 848.502 674.06 851.076C681.658 851.352 692.228 849.843 699.389 851.324C701.508 851.762 703.644 852.637 704.79 854.585C705.915 856.497 705.779 859.588 705.234 861.653C704.825 863.203 703.939 864.334 702.53 865.121C699.553 866.783 663.627 866.619 660.333 865.039C658.809 864.308 658.524 863.555 658.077 861.999C656.377 856.077 656.005 795.113 658.015 792.397C659.29 790.675 660.934 790.159 662.935 789.681Z"/><path fill="#F9F9F9" d="M261.207 789.603C267.227 789.328 296.807 788.151 300.65 791.105C302.251 792.336 302.934 794.585 303.131 796.505C303.339 798.524 303.064 800.502 301.671 802.066C297.963 806.232 277.803 804.213 271.63 804.553C270.978 810.361 270.905 813.67 271.615 819.458C278.3 819.647 297.81 816.619 299.432 825.176C302.411 840.894 280.535 833.022 272.086 835.256C271.903 835.279 271.72 835.302 271.537 835.325L271.473 843.841L271.699 851.065C278.241 851.381 297.97 849.061 302.323 853.603C304.052 855.408 303.87 858.462 303.568 860.767C303.331 862.587 302.581 864.055 300.992 865.067C298.43 866.7 263.071 866.471 259.205 865.341C258.036 864.999 256.865 864.653 256.319 863.481C255.406 861.518 255.191 858.66 255.055 856.502C254.605 849.33 254.123 794.947 255.967 792.176C257.073 790.515 259.426 790.059 261.207 789.603Z"/><path fill="#F9F9F9" d="M791.342 684.137C800.172 683.43 807.458 684.318 815.128 689.272C819.897 692.352 821.441 698.28 817.534 702.692C812.204 708.712 801.337 697.295 794.511 698.943C792.388 699.456 790.976 699.571 789.513 701.61C782.753 710.83 794.881 714.071 801.485 716.233C811.252 719.43 821.224 723.257 822.781 734.89C825.009 751.534 813.394 760.925 798.033 762.11C788.173 762.546 781.453 761.102 773.129 755.725C764.932 751.045 769.493 736.548 779.162 740.795C786.611 744.068 797.505 751.273 804.409 742.665C810.281 734.919 796.75 730.803 791.729 729.172C778.192 724.773 766.739 717.597 770.843 701.206C773.513 690.54 780.795 685.898 791.342 684.137Z"/><path fill="#F9F9F9" d="M612.123 789.104C619.781 788.488 649.361 790.114 638.322 808.152C634.275 814.766 617.269 797.296 610.913 806.234C601.599 819.33 628.047 819.944 634.429 825.9C646.037 834.294 648.002 843.26 640.515 856.058C635.806 863.661 626.572 865.78 618.595 866.974C611.481 867.197 592.532 864.348 590.164 854.931C589.201 848.401 593.201 842.636 600.389 845.729C608.589 849.258 619.116 856.285 626.413 846.504C630.776 840.658 619.424 835.723 614.723 834.436C597.708 829.779 584.521 818.24 594.793 799.612C598.24 793.408 605.23 790.661 612.123 789.104Z"/><path fill="#F9F9F9" d="M737.099 789.091C744.784 788.786 765.056 789.002 766.097 801.162C766.722 808.463 759.91 811.835 753.718 807.802C749.684 805.174 739.548 801.279 735.808 806.185C728.376 815.334 742.683 819.077 748.845 820.996C758.753 824.154 768.9 828.438 770.017 840.337C771.604 857.236 759.252 864.948 744.62 866.82C735.686 867.428 722.76 864.798 717.268 856.819C715.844 854.752 714.918 850.44 716.736 848.295C722.371 841.659 729.027 847.037 735.074 849.714C740.837 852.266 748.235 852.306 752.181 846.67C756.955 840.232 743.714 835.408 739.045 834.11C721.995 829.37 710.247 817.418 719.931 799.384C723.124 793.439 730.59 790.577 737.099 789.091Z"/><path fill="#F9F9F9" d="M399.726 684.555C404.052 684.411 411.504 683.619 411.961 689.873C413.276 707.864 411.012 727.153 412.525 745.053L412.603 745.929C421.001 746.346 430.222 745.072 438.346 746.521C444.649 747.646 446.141 758.578 439.509 761.422C431.484 761.587 403.261 762.997 397.651 759.693C395.888 756.538 395.566 752.11 395.613 748.515C395.877 728.533 394.968 708.346 396.176 688.427C396.29 686.55 398.285 685.332 399.726 684.555Z"/><path fill="#F9F9F9" d="M368.971 684.584C371.064 684.471 373.247 684.291 375.328 684.589C377.071 684.84 379.415 685.797 380.274 687.463C381.306 689.462 381.8 753.317 380.819 757.329C380.274 759.554 378.96 760.186 377.104 761.207C375.669 761.377 374.227 761.487 372.782 761.537C369.685 761.643 367.821 761.192 365.623 759.105C364.634 754.43 364.88 745.835 364.872 740.742L364.861 714.992C364.865 706.671 364.764 697.76 365.051 689.423C365.132 687.081 367.161 685.887 368.971 684.584Z"/><path fill="#F9F9F9" d="M752.957 684.669C755.39 684.529 762.248 683.893 763.96 685.523C764.77 690.003 759.12 708.703 755.875 711.876C747.404 714.768 743.32 709.033 744.991 701.231C746.315 695.054 745.938 686.441 752.957 684.669Z"/></svg>