<?xml version="1.0" encoding="UTF-8"?>
<svg xmlns="http://www.w3.org/2000/svg" xmlns:xlink="http://www.w3.org/1999/xlink" viewBox="0 0 500 500">
  <defs>
    <style>
      .cls-1 {
        fill: url(#linear-gradient-13);
      }

      .cls-2 {
        fill: url(#linear-gradient-2);
      }

      .cls-3 {
        fill: url(#linear-gradient-10);
      }

      .cls-4 {
        fill: url(#linear-gradient-12);
      }

      .cls-5 {
        fill: url(#linear-gradient-5);
      }

      .cls-5, .cls-6 {
        mix-blend-mode: screen;
        opacity: .5;
      }

      .cls-6 {
        fill: url(#linear-gradient-4);
      }

      .cls-7 {
        fill: url(#linear-gradient-3);
      }

      .cls-8 {
        fill: #eff4f6;
        mix-blend-mode: multiply;
      }

      .cls-9 {
        isolation: isolate;
      }

      .cls-10 {
        fill: url(#linear-gradient-8);
      }

      .cls-11 {
        fill: #8e1c48;
      }

      .cls-12 {
        fill: url(#linear-gradient-7);
      }

      .cls-13 {
        fill: url(#linear-gradient-9);
      }

      .cls-14 {
        fill: url(#linear-gradient-11);
      }

      .cls-15 {
        fill: url(#linear-gradient-6);
      }

      .cls-16 {
        fill: url(#linear-gradient);
      }
    </style>
    <linearGradient id="linear-gradient" x1="144.4" y1="335.17" x2="355.6" y2="335.17" gradientUnits="userSpaceOnUse">
      <stop offset="0" stop-color="#df784a"/>
      <stop offset="1" stop-color="#93472c"/>
    </linearGradient>
    <linearGradient id="linear-gradient-2" y1="331.57" y2="331.57" xlink:href="#linear-gradient"/>
    <linearGradient id="linear-gradient-3" x1="144.4" y1="327.96" x2="355.6" y2="327.96" gradientUnits="userSpaceOnUse">
      <stop offset="0" stop-color="#ffa965"/>
      <stop offset="1" stop-color="#df784a"/>
    </linearGradient>
    <linearGradient id="linear-gradient-4" x1="337.94" y1="140.15" x2="337.94" y2="327.03" gradientUnits="userSpaceOnUse">
      <stop offset="0" stop-color="#eff4f6"/>
      <stop offset="1" stop-color="#000"/>
    </linearGradient>
    <linearGradient id="linear-gradient-5" x1="326.9" x2="326.9" y2="324.41" xlink:href="#linear-gradient-4"/>
    <linearGradient id="linear-gradient-6" y1="129.03" y2="129.03" xlink:href="#linear-gradient"/>
    <linearGradient id="linear-gradient-7" y1="125.42" y2="125.42" xlink:href="#linear-gradient"/>
    <linearGradient id="linear-gradient-8" y1="121.82" y2="121.82" xlink:href="#linear-gradient-3"/>
    <linearGradient id="linear-gradient-9" x1="150.1" y1="121.82" x2="349.9" y2="121.82" xlink:href="#linear-gradient"/>
    <linearGradient id="linear-gradient-10" x1="151.49" y1="120.65" x2="348.51" y2="120.65" xlink:href="#linear-gradient-3"/>
    <linearGradient id="linear-gradient-11" x1="214.8" y1="117.97" x2="285.2" y2="117.97" xlink:href="#linear-gradient"/>
    <linearGradient id="linear-gradient-12" x1="283.08" y1="92.38" x2="283.08" y2="119.6" xlink:href="#linear-gradient"/>
    <linearGradient id="linear-gradient-13" x1="216.92" y1="92.38" x2="216.92" y2="119.6" xlink:href="#linear-gradient"/>
  </defs>
  <g class="cls-9">
    <g id="OBJECTS">
      <g>
        <g>
          <g>
            <ellipse class="cls-16" cx="250" cy="335.17" rx="105.6" ry="24.87"/>
            <rect class="cls-2" x="144.4" y="327.96" width="211.19" height="7.21"/>
            <ellipse class="cls-7" cx="250" cy="327.96" rx="105.6" ry="24.87"/>
          </g>
          <g>
            <g>
              <path class="cls-11" d="M250,349.19c-28.39,0-55.7-2.81-74.94-7.72-16.79-4.28-26.41-9.89-26.41-15.38v-190.19h202.71v190.19c0,4.4-6.22,8.94-17.51,12.77-19.06,6.47-50.4,10.33-83.84,10.33Z"/>
              <path class="cls-11" d="M350.35,136.9v189.19c0,3.88-6.14,8.2-16.84,11.83-18.96,6.43-50.18,10.27-83.52,10.27-28.31,0-55.53-2.8-74.69-7.69-16.07-4.1-25.66-9.49-25.66-14.41v-189.19h200.71M352.35,134.9h-204.71v191.19c0,6.31,10.3,12.05,27.17,16.35,18.7,4.77,45.47,7.75,75.19,7.75,34.87,0,65.68-4.11,84.16-10.38,11.48-3.9,18.19-8.62,18.19-13.72v-191.19h0Z"/>
            </g>
            <path class="cls-6" d="M342.77,134.91v191.19c0,5.1-2.68,9.83-7.26,13.72h-2.42v-204.91h9.67Z"/>
            <path class="cls-5" d="M328.73,134.91v191.19c0,5.1-1.01,9.83-2.74,13.72h-.91v-204.91h3.66Z"/>
            <path class="cls-8" d="M174.81,134.91v207.54c-16.86-4.3-27.17-10.04-27.17-16.35v-191.19h27.17Z"/>
          </g>
          <g>
            <ellipse class="cls-15" cx="250" cy="129.03" rx="105.6" ry="24.87"/>
            <rect class="cls-12" x="144.4" y="121.82" width="211.19" height="7.21"/>
            <ellipse class="cls-10" cx="250" cy="121.82" rx="105.6" ry="24.87"/>
            <ellipse class="cls-13" cx="250" cy="121.82" rx="99.9" ry="21.24"/>
            <ellipse class="cls-3" cx="250" cy="120.65" rx="98.51" ry="20.06"/>
          </g>
        </g>
        <g>
          <polygon class="cls-14" points="285.2 120.35 214.8 120.35 219.03 115.59 280.97 115.59 285.2 120.35"/>
          <polygon class="cls-4" points="285.2 120.35 280.97 120.35 280.97 115.59 285.2 120.35"/>
          <polygon class="cls-1" points="219.03 115.59 219.03 120.35 214.8 120.35 219.03 115.59"/>
        </g>
      </g>
    </g>
  </g>
</svg>