<svg
    xmlns="http://www.w3.org/2000/svg"
    viewBox="140 90 220 270">

  <defs>
    <linearGradient id="linear-gradient" x1="144.4" y1="335.17" x2="355.6" y2="335.17" gradientUnits="userSpaceOnUse">
      <stop offset="0" stop-color="#df784a"/>
      <stop offset="1" stop-color="#93472c"/>
    </linearGradient>

    <linearGradient id="linear-gradient-2" x1="144.4" y1="331.57" x2="355.6" y2="331.57" gradientUnits="userSpaceOnUse">
      <stop offset="0" stop-color="#df784a"/>
      <stop offset="1" stop-color="#93472c"/>
    </linearGradient>

    <linearGradient id="linear-gradient-3" x1="144.4" y1="327.96" x2="355.6" y2="327.96" gradientUnits="userSpaceOnUse">
      <stop offset="0" stop-color="#ffa965"/>
      <stop offset="1" stop-color="#df784a"/>
    </linearGradient>

    <linearGradient id="linear-gradient-4" x1="337.94" y1="140.15" x2="337.94" y2="327.03" gradientUnits="userSpaceOnUse">
      <stop offset="0" stop-color="#eff4f6"/>
      <stop offset="1" stop-color="#000000"/>
    </linearGradient>

    <linearGradient id="linear-gradient-5" x1="326.9" y1="140.15" x2="326.9" y2="324.41" gradientUnits="userSpaceOnUse">
      <stop offset="0" stop-color="#eff4f6"/>
      <stop offset="1" stop-color="#000000"/>
    </linearGradient>

    <linearGradient id="linear-gradient-6" x1="144.4" y1="129.03" x2="355.6" y2="129.03" gradientUnits="userSpaceOnUse">
      <stop offset="0" stop-color="#df784a"/>
      <stop offset="1" stop-color="#93472c"/>
    </linearGradient>

    <linearGradient id="linear-gradient-7" x1="144.4" y1="125.42" x2="355.6" y2="125.42" gradientUnits="userSpaceOnUse">
      <stop offset="0" stop-color="#df784a"/>
      <stop offset="1" stop-color="#93472c"/>
    </linearGradient>

    <linearGradient id="linear-gradient-8" x1="144.4" y1="121.82" x2="355.6" y2="121.82" gradientUnits="userSpaceOnUse">
      <stop offset="0" stop-color="#ffa965"/>
      <stop offset="1" stop-color="#df784a"/>
    </linearGradient>

    <linearGradient id="linear-gradient-9" x1="150.1" y1="121.82" x2="349.9" y2="121.82" gradientUnits="userSpaceOnUse">
      <stop offset="0" stop-color="#df784a"/>
      <stop offset="1" stop-color="#93472c"/>
    </linearGradient>

    <linearGradient id="linear-gradient-10" x1="151.49" y1="120.65" x2="348.51" y2="120.65" gradientUnits="userSpaceOnUse">
      <stop offset="0" stop-color="#ffa965"/>
      <stop offset="1" stop-color="#df784a"/>
    </linearGradient>

    <linearGradient id="linear-gradient-11" x1="214.8" y1="117.97" x2="285.2" y2="117.97" gradientUnits="userSpaceOnUse">
      <stop offset="0" stop-color="#df784a"/>
      <stop offset="1" stop-color="#93472c"/>
    </linearGradient>

    <linearGradient id="linear-gradient-12" x1="283.08" y1="92.38" x2="283.08" y2="119.6" gradientUnits="userSpaceOnUse">
      <stop offset="0" stop-color="#df784a"/>
      <stop offset="1" stop-color="#93472c"/>
    </linearGradient>

    <linearGradient id="linear-gradient-13" x1="216.92" y1="92.38" x2="216.92" y2="119.6" gradientUnits="userSpaceOnUse">
      <stop offset="0" stop-color="#df784a"/>
      <stop offset="1" stop-color="#93472c"/>
    </linearGradient>
  </defs>

  <g>
    <!-- Bottom -->
    <ellipse
        cx="250"
        cy="335.17"
        rx="105.6"
        ry="24.87"
        fill="url(#linear-gradient)" />

    <rect
        x="144.4"
        y="327.96"
        width="211.19"
        height="7.21"
        fill="url(#linear-gradient-2)" />

    <ellipse
        cx="250"
        cy="327.96"
        rx="105.6"
        ry="24.87"
        fill="url(#linear-gradient-3)" />

    <!-- Body -->
    <path
        d="M250,349.19c-28.39,0-55.7-2.81-74.94-7.72-16.79-4.28-26.41-9.89-26.41-15.38v-190.19h202.71v190.19c0,4.4-6.22,8.94-17.51,12.77-19.06,6.47-50.4,10.33-83.84,10.33Z"
        fill="#8e1c48" />

    <path
        d="M350.35,136.9v189.19c0,3.88-6.14,8.2-16.84,11.83-18.96,6.43-50.18,10.27-83.52,10.27-28.31,0-55.53-2.8-74.69-7.69-16.07-4.1-25.66-9.49-25.66-14.41v-189.19h200.71M352.35,134.9h-204.71v191.19c0,6.31,10.3,12.05,27.17,16.35,18.7,4.77,45.47,7.75,75.19,7.75,34.87,0,65.68-4.11,84.16-10.38,11.48-3.9,18.19-8.62,18.19-13.72v-191.19h0Z"
        fill="#8e1c48" />

    <!-- Right highlight -->
    <path
        d="M342.77,134.91v191.19c0,5.1-2.68,9.83-7.26,13.72h-2.42v-204.91h9.67Z"
        fill="url(#linear-gradient-4)"
        opacity="0.5" />

    <path
        d="M328.73,134.91v191.19c0,5.1-1.01,9.83-2.74,13.72h-.91v-204.91h3.66Z"
        fill="url(#linear-gradient-5)"
        opacity="0.5" />

    <!-- Left shadow -->
    <path
        d="M174.81,134.91v207.54c-16.86-4.3-27.17-10.04-27.17-16.35v-191.19h27.17Z"
        fill="#eff4f6"
        opacity="0.35" />

    <!-- Top -->
    <ellipse
        cx="250"
        cy="129.03"
        rx="105.6"
        ry="24.87"
        fill="url(#linear-gradient-6)" />

    <rect
        x="144.4"
        y="121.82"
        width="211.19"
        height="7.21"
        fill="url(#linear-gradient-7)" />

    <ellipse
        cx="250"
        cy="121.82"
        rx="105.6"
        ry="24.87"
        fill="url(#linear-gradient-8)" />

    <ellipse
        cx="250"
        cy="121.82"
        rx="99.9"
        ry="21.24"
        fill="url(#linear-gradient-9)" />

    <ellipse
        cx="250"
        cy="120.65"
        rx="98.51"
        ry="20.06"
        fill="url(#linear-gradient-10)" />

    <!-- Slot -->
    <polygon
        points="285.2 120.35 214.8 120.35 219.03 115.59 280.97 115.59 285.2 120.35"
        fill="url(#linear-gradient-11)" />

    <polygon
        points="285.2 120.35 280.97 120.35 280.97 115.59 285.2 120.35"
        fill="url(#linear-gradient-12)" />

    <polygon
        points="219.03 115.59 219.03 120.35 214.8 120.35 219.03 115.59"
        fill="url(#linear-gradient-13)" />
  </g>
</svg>