<?xml version="1.0" encoding="utf-8" ?><svg xmlns="http://www.w3.org/2000/svg" xmlns:xlink="http://www.w3.org/1999/xlink" width="260" height="263" viewBox="0 0 260 263"><path fill="#6CD3A3" d="M117.144 38.832C119.232 40.1426 123.586 42.123 125.851 43.0832C127.812 42.3451 133.484 40.7138 135.36 40.7714C145.835 41.0932 142.111 55.1376 137.41 59.5401C145.614 62.8116 148.352 70.0864 141.556 76.5171C143.263 79.562 145.588 82.7966 146.79 85.9618C147.209 87.0682 147.015 87.7946 146.468 88.7781C146.701 89.6944 146.977 91.3549 147.591 91.9414C158.56 85.9228 172.255 88.5222 180.256 98.1413C188.257 107.76 188.319 121.701 180.403 131.39C172.487 141.079 158.815 143.799 147.793 137.877C146.844 138.396 145.665 140.204 145.41 141.237C145.48 141.774 145.607 142.461 145.328 142.927C143.858 145.384 137.446 147.383 134.831 147.991C130.092 149.093 121.172 150.615 116.387 150.457C108.02 150.18 96.2189 148.57 89.0794 144.335C81.9583 140.111 76.1307 132.247 74.2877 124.244C71.0338 110.114 75.832 102.999 82.554 91.6995L91.8086 76.1232C86.3739 70.2827 88.3731 62.8564 95.6778 59.9025C92.0128 56.3828 87.9405 44.779 94.1664 41.6463C98.0539 39.6904 103.345 41.8577 107.364 43.1064C110.597 41.8082 113.918 40.2259 117.144 38.832Z"/><path d="M117.144 38.832C119.232 40.1426 123.586 42.123 125.851 43.0832C127.812 42.3451 133.484 40.7138 135.36 40.7714C145.835 41.0932 142.111 55.1376 137.41 59.5401C145.614 62.8116 148.352 70.0864 141.556 76.5171C143.263 79.562 145.588 82.7966 146.79 85.9618C147.209 87.0682 147.015 87.7946 146.468 88.7781C145.69 89.2589 144.534 90.0958 143.672 89.7099C141.458 88.718 137.256 80.646 136.154 78.5094C132.775 78.5163 129.261 78.4743 125.893 78.5469C128.425 81.7787 129.684 86.6667 129.133 90.7255C128.847 92.8352 128.119 96.5711 125.252 96.0871C122.941 95.6968 122.418 93.3648 123.037 91.4262C124.626 86.4502 122.074 82.14 118.96 78.4893L114.967 78.482C112.339 81.6006 110.007 85.0319 110.493 89.1068C110.686 90.7244 111.358 94.0609 110.269 95.2437C108.896 96.7353 105.997 95.9771 105.434 93.851C104.091 88.7842 105.052 82.9617 107.761 78.5239L96.7063 78.4919C95.9449 80.7107 93.6469 84.2022 92.395 86.3039L85.6242 97.665C79.4915 107.977 76.1709 115.768 81.5619 127.595C84.4146 133.992 89.7085 138.981 96.263 141.45C100.172 142.899 104.465 143.313 108.501 144.043C115.466 145.341 122.125 144.63 129 143.258C132.055 142.648 134.25 142.543 137.199 141.227C140.234 139.872 143.479 137.098 145.41 141.237C145.48 141.774 145.607 142.461 145.328 142.927C143.858 145.384 137.446 147.383 134.831 147.991C130.092 149.093 121.172 150.615 116.387 150.457C108.02 150.18 96.2189 148.57 89.0794 144.335C81.9583 140.111 76.1307 132.247 74.2877 124.244C71.0338 110.114 75.832 102.999 82.554 91.6995L91.8086 76.1232C86.3739 70.2827 88.3731 62.8564 95.6778 59.9025C92.0128 56.3828 87.9405 44.779 94.1664 41.6463C98.0539 39.6904 103.345 41.8577 107.364 43.1064C110.597 41.8082 113.918 40.2259 117.144 38.832Z"/><path fill="#6CD3A3" d="M116.883 45.236C117.727 45.3161 123.829 48.6623 124.939 49.2535C127.759 48.6986 133.683 46.2262 136.079 46.4375L136.389 46.9236C136.606 48.2145 135.966 50.4108 135.542 51.6781C134.09 56.0071 132.018 57.7459 128.159 59.6756C125.563 59.4026 119.86 59.5468 117.036 59.539C107.917 59.637 99.2358 61.4492 96.9035 49.6159C96.7158 48.6635 96.4968 47.2873 97.0664 46.4481C98.5408 46.1111 105.734 48.6475 107.764 49.2841C110.775 47.8706 113.815 46.5209 116.883 45.236Z"/><path fill="#6CD3A3" d="M98.2352 65.3028C102.858 65.1744 135.109 64.833 137.313 65.6328C138.618 66.106 139.188 67.596 139.722 68.7569C138.879 71.4068 138.661 72.3912 135.827 72.904C128.869 73.1659 120.898 72.9106 113.866 72.9775C109.361 73.0203 101.036 73.1948 96.7804 72.7076C93.0333 70.2666 93.5888 66.0327 98.2352 65.3028Z"/><path d="M147.591 91.9414C158.56 85.9228 172.255 88.5222 180.256 98.1413C188.257 107.76 188.319 121.701 180.403 131.39C172.487 141.079 158.815 143.799 147.793 137.877C139.352 133.342 134.07 124.551 134.028 114.97C133.985 105.388 139.19 96.5507 147.591 91.9414Z"/><path fill="#F9BF0E" d="M157.659 94.4679C168.922 93.0759 179.176 101.089 180.549 112.354C181.921 123.619 173.89 133.859 162.623 135.212C151.383 136.561 141.174 128.555 139.805 117.317C138.436 106.08 146.424 95.8564 157.659 94.4679Z"/><path d="M154.436 117.033C152.521 115.545 151.036 114.019 150.708 111.448C150.476 109.728 150.957 107.989 152.04 106.634C153.587 104.673 155.03 104.266 157.241 103.617C157.661 103.494 157.093 98.565 159.507 98.5428C163.098 98.5097 163.015 100.943 162.896 103.76C164.722 103.761 169.929 103.527 169.843 106.717C169.822 107.479 169.172 108.428 168.618 108.959C165.443 110.455 157.761 108.386 156.39 110.414C156.482 110.835 156.627 111.554 157.127 111.665C161.176 112.568 167.648 111.146 169.248 116.428C170.957 122.071 167.442 124.535 163.138 126.307C162.969 126.377 162.885 130.362 160.728 131.378C160.061 131.491 159.74 131.365 159.18 130.98C157.188 129.612 157.332 128.023 157.42 125.798C155.258 125.913 153.154 126.283 151.387 124.739C149.337 122.95 151.29 120.431 153.427 120.153C153.669 119.084 154.178 118.712 154.436 117.033Z"/><path fill="#EDB847" d="M154.436 117.033C157.835 118.136 162.221 117.17 163.651 118.142C163.894 118.926 163.892 118.591 163.618 119.412C162.141 120.77 155.559 120.297 153.427 120.153C153.669 119.084 154.178 118.712 154.436 117.033Z"/><path d="M66.3315 164.414C74.3483 161.941 82.5025 159.669 90.5351 157.283C97.544 155.2 104.892 152.169 112.17 154.622C114.386 155.369 116.56 156.102 118.753 156.868L132.677 161.694L148.293 167.06C155.228 169.459 160.553 170.066 162.867 177.923C170.518 173.8 179.465 170.405 187.476 166.692C193.34 163.973 199.705 160.852 205.846 158.695C216.909 154.81 226.448 171.67 217.132 179.197C212.429 182.997 205.033 185.663 199.804 188.898C189.697 194.283 179.593 199.749 169.47 205.05C151.849 214.277 136.065 215.42 117.181 209.345C104.335 205.212 98.1933 200.746 84.5354 203.84C85.4919 205.706 87.0086 208.22 86.3437 210.284C84.4901 212.273 67.8059 219.529 63.9892 221.254C61.7831 219.721 60.2879 218.101 62.5177 215.607C61.076 213.002 58.946 208.035 57.5959 205.124L48.3719 185.151C46.7896 181.682 44.3014 175.676 42.2401 172.726C40.8008 172.417 39.0785 171.552 39.0497 169.852C39.3101 168.85 40.2995 167.365 41.8274 166.713C48.0078 164.076 55.9848 159.242 62.446 157.977C63.588 157.753 65.6772 162.92 66.3315 164.414Z"/><path fill="#03ADF8" d="M42.2401 172.726C43.7286 171.865 46.7965 170.633 48.4669 169.872L60.1333 164.503L73.4007 193.364C75.0958 197.024 78.1444 204.143 80.0575 207.517C75.9092 209.503 71.7407 211.446 67.5528 213.347C66.7582 213.712 63.0772 215.458 62.5177 215.607C61.076 213.002 58.946 208.035 57.5959 205.124L48.3719 185.151C46.7896 181.682 44.3014 175.676 42.2401 172.726Z"/><path fill="#FECFC1" d="M104.64 159.293C109.597 158.946 128.516 166.329 134.199 168.269C138.353 169.67 142.499 171.096 146.636 172.548C148.833 173.298 152.458 174.281 154.361 175.38C159.612 178.413 157.63 183.876 153.099 186.217C142.484 186.15 130.475 183.064 119.843 182.62C116.289 182.471 114.002 187.778 120.956 188.502C131.303 189.578 141.729 190.977 152.102 191.825C156.942 192.204 160.497 188.144 162.482 184.281C165.09 182.788 168.486 181.462 171.278 180.214C182.495 175.202 193.682 170.113 204.923 165.157C210.583 162.661 214.517 164.772 215.141 171.083C214.867 173.301 213.758 174.953 211.778 176.017C205.384 179.453 198.912 182.915 192.505 186.324L175.474 195.393C168.199 199.277 161.268 203.24 153.243 205.452C143.001 208.275 132.397 207.658 122.252 204.898C111.084 201.859 101.645 195.922 89.6655 197.367C87.0151 197.687 84.7809 197.825 82.1488 198.595C77.7238 189.197 72.8538 179.026 68.7668 169.514C71.475 169.059 75.7949 167.541 78.59 166.768C87.1788 164.394 95.9758 161.36 104.64 159.293Z"/><path d="M205.143 102.709C205.683 102.71 206.654 102.705 207.123 103.024C211.459 105.968 215.904 109.281 219.756 112.832C220.901 114.075 221.617 115.193 220.114 116.517C216.057 120.093 211.584 123.87 206.917 126.59C206.493 126.837 205.263 126.702 204.762 126.647C203.208 125.387 203.286 123.951 203.214 122.124C200.929 122.129 191.843 122.702 190.432 121.44C189.127 120.273 189.519 113.342 189.606 111.559C189.657 110.512 189.82 109.192 190.617 108.422C192.724 106.389 202.489 108.266 203.028 107.376C203.986 105.797 202.654 105.015 205.143 102.709Z"/><path fill="#BA1F2E" d="M208.707 111.428C209.899 111.776 212.599 114.059 213.684 114.937C211.949 116.112 210.946 117.004 209.026 118.133C207.054 116.093 204.447 116.481 201.538 116.404C199.744 116.394 193.19 117.11 195.432 113.715C197.952 112.257 204.565 113.848 207.513 112.598C208.09 112.354 208.312 111.91 208.707 111.428Z"/><path d="M186.093 131.486C188.626 132.37 193.843 138.166 195.831 140.37C203.731 130.62 203.926 154.686 203.259 157.796C201.45 158.964 197.865 158.195 195.69 157.933C190.907 157.294 178.684 158.003 185.553 150.32C182.93 148.091 179.221 144.486 177.36 141.691C175.749 139.27 184.192 132.33 186.093 131.486Z"/><path fill="#BA1F2E" d="M185.839 138.695C188.94 139.121 191.92 146.606 197.266 147.05C197.475 148.649 198.352 150.871 197.65 152.094L196.789 152.219L192.677 151.997C191.437 146.965 187.052 144.586 183.671 140.616L185.839 138.695Z"/><path d="M198.731 71.3481C201.835 70.9898 204.288 71.0631 203.681 75.2228C202.968 80.1122 202.829 85.9868 201.58 90.7149C200.679 91.1877 199.893 91.4371 198.933 91.771C197.395 90.9488 196.89 90.6298 195.714 89.3317C193.749 91.4616 188.984 97.2271 186.253 97.9301C185.325 98.1687 184.496 97.4659 183.782 96.9049L183.687 96.8111C173.997 87.259 175.957 88.4565 185.609 79.2532C184.274 77.883 184.037 77.6221 182.997 76.0049C183.131 75.6949 183.786 74.2258 183.911 74.1196C185.937 72.3979 196.107 71.6701 198.731 71.3481Z"/><path fill="#BA1F2E" d="M195.126 77.299L197.609 77.1932C197.524 78.8518 197.584 80.3203 197.445 82.0349C196.376 83.181 196.003 81.7331 194.483 82.9879C191.479 85.4666 189.254 88.5764 186.272 91.0477L185.905 91.1397C185.141 90.7478 184.264 89.4774 183.692 88.7563C186.18 86.3401 189.2 83.4694 191.527 80.829C191.748 80.578 192.476 78.4998 192.633 78.0482C193.172 77.6069 194.387 77.4507 195.126 77.299Z"/></svg>