<?xml version='1.0' encoding='UTF-8'?>
<svg xmlns="http://www.w3.org/2000/svg" xmlns:xlink="http://www.w3.org/1999/xlink" version="1.1" x="0px" y="0px" viewBox="145 72 85 105" style="enable-background:new 0 0 500 500;" xml:space="preserve"><g>
				<path style="fill:#D76327;" d="M220.713,125.728c-8.863-12.356-10.152-21.101-10.152-21.101l-5.065-1.948l-18.571,4.544      l-18.569-4.544l-5.067,1.948c0,0-3.527,9.319-10.153,21.101c-15.222,27.066-2.389,39.711,15.708,44.272h15.461h5.243h17.504      C225.147,165.439,237.063,148.523,220.713,125.728z"/>
				<g>
					<rect x="179.142" y="150.262" style="fill:#FDCC9B;" width="16.42" height="16.712"/>
					<g>
						<g>
							<g>
								<g>
									<g>
										<path style="fill:#FDCC9B;" d="M160.929,124.604c0.023,3.832-3.066,6.956-6.896,6.979            c-3.835,0.026-6.959-3.064-6.981-6.896c-0.023-3.833,3.066-6.959,6.899-6.979            C157.782,117.684,160.905,120.773,160.929,124.604z"/>
										<path style="fill:#F4B882;" d="M158.02,124.62c0.015,2.227-1.781,4.042-4.006,4.057c-2.225,0.011-4.041-1.782-4.055-4.009            c-0.013-2.228,1.781-4.041,4.007-4.052C156.193,120.6,158.006,122.395,158.02,124.62z"/>
									</g>
								</g>
								<g>
									<g>
										<path style="fill:#FDCC9B;" d="M227.653,124.211c0.023,3.832-3.066,6.958-6.898,6.979            c-3.833,0.025-6.959-3.064-6.982-6.896c-0.022-3.833,3.066-6.956,6.9-6.979            C224.505,117.29,227.628,120.38,227.653,124.211z"/>
										<path style="fill:#F4B882;" d="M224.741,124.229c0.016,2.227-1.78,4.041-4.005,4.055            c-2.225,0.011-4.041-1.782-4.055-4.009c-0.014-2.225,1.779-4.04,4.01-4.054            C222.916,120.209,224.729,122.002,224.741,124.229z"/>
									</g>
								</g>
							</g>
							<path style="fill:#FDCC9B;" d="M220.554,126.685c0.089,14.836-11.979,27.045-26.814,27.132l-12.773,0.072         c-14.837,0.09-27.046-11.978-27.135-26.812l-0.066-11.609c-0.089-14.837,11.979-27.046,26.813-27.133l12.775-0.076         c14.836-0.086,27.048,11.979,27.134,26.816L220.554,126.685z"/>
							<path style="fill:#F4B882;" d="M191.07,134.036c0.007,1.292-1.648,2.351-3.695,2.364c-2.049,0.012-3.716-1.026-3.725-2.321         c-0.007-1.292,1.648-2.349,3.697-2.359C189.394,131.706,191.061,132.746,191.07,134.036z"/>
							<path style="fill:#FFFFFF;" d="M187.359,140.74h-9.184c0,0,0.813,6.26,9.184,6.26c8.374,0,9.187-6.26,9.187-6.26H187.359z"/>
							<g>
								<path style="fill:#352215;" d="M207.761,126.922c0,1.894-1.124,3.444-2.497,3.444c-1.374,0-2.498-1.55-2.498-3.444          c0-1.894,1.124-3.444,2.498-3.444C206.637,123.479,207.761,125.028,207.761,126.922z"/>
								<path style="fill:#352215;" d="M171.568,126.922c0,1.894-1.124,3.444-2.498,3.444c-1.373,0-2.497-1.55-2.497-3.444          c0-1.894,1.124-3.444,2.497-3.444C170.444,123.479,171.568,125.028,171.568,126.922z"/>
							</g>
						</g>
					</g>
				</g>
				<path style="fill:#AC69B9;" d="M195.561,158.618c-1.432,2.358-5.027,7.435-8.551,7.356c-3.297-0.073-6.53-5.149-7.869-7.356      c0,0-26.091-0.604-32.091,14.715h40.117h0.184h40.118C221.469,158.014,195.561,158.618,195.561,158.618z"/>
				<g>
					<g>
						<g>
							<path style="fill:#6D4D42;" d="M201.381,118.891c2.374-1.253,5.355-1.196,7.48,0.504c0.597,0.475,1.446-0.364,0.845-0.846         c-2.567-2.051-6.033-2.217-8.926-0.689C200.099,118.219,200.702,119.248,201.381,118.891L201.381,118.891z"/>
						</g>
						<g>
							<path style="fill:#6D4D42;" d="M172.936,118.891c-2.375-1.253-5.355-1.196-7.48,0.504c-0.595,0.475-1.444-0.364-0.845-0.846         c2.567-2.051,6.033-2.217,8.927-0.689C174.217,118.219,173.614,119.248,172.936,118.891L172.936,118.891z"/>
						</g>
					</g>
					<path style="fill:#D76327;" d="M154.97,120.22c0,0,14.566-12.38,18.866-20.72c0,0,16.197,8.455,46.855,20.72       c0,0,2.864-3.004,5.105-0.685c0,0,3.054-45.446-37.759-43.953c0.07,0.004-40.66-3.741-37.949,43.25       C150.089,118.832,153.121,118.792,154.97,120.22z"/>
				</g>
			</g>
			</svg>