<?xml version='1.0' encoding='UTF-8'?>
<svg xmlns="http://www.w3.org/2000/svg" xmlns:xlink="http://www.w3.org/1999/xlink" version="1.1" x="0px" y="0px" viewBox="25 200 90 105" style="enable-background:new 0 0 500 500;" xml:space="preserve"><g>
				<path style="fill:#966544;" d="M36.037,255.423c0,0-8.06,8.327-5.31,18.827s-3.75,13.5-7.5,14c0,0,26.659,4.41,27.94-17.5      C52.449,248.84,41.097,251.596,36.037,255.423z"/>
				<g>
					<g>
						<rect x="61.189" y="275.84" style="fill:#FDCC9B;" width="16.419" height="21.494"/>
						<g>
							<g>
								<g>
									<g>
										<g>
											<path style="fill:#FDCC9B;" d="M42.977,250.181c0.022,3.833-3.066,6.955-6.897,6.979             c-3.834,0.025-6.958-3.064-6.981-6.896c-0.022-3.833,3.066-6.959,6.899-6.98             C39.829,243.261,42.953,246.351,42.977,250.181z"/>
											<path style="fill:#F4B882;" d="M40.067,250.197c0.015,2.227-1.781,4.043-4.006,4.057             c-2.225,0.012-4.041-1.781-4.055-4.009c-0.014-2.228,1.781-4.041,4.006-4.052             C38.241,246.177,40.054,247.972,40.067,250.197z"/>
										</g>
									</g>
									<g>
										<g>
											<path style="fill:#FDCC9B;" d="M109.701,249.788c0.023,3.832-3.066,6.958-6.899,6.979             c-3.832,0.025-6.958-3.064-6.98-6.896c-0.023-3.833,3.066-6.956,6.898-6.979             C106.553,242.868,109.676,245.957,109.701,249.788z"/>
											<path style="fill:#F4B882;" d="M106.789,249.806c0.016,2.227-1.78,4.04-4.005,4.055c-2.225,0.011-4.041-1.782-4.055-4.01             c-0.014-2.225,1.779-4.041,4.01-4.054C104.964,245.786,106.776,247.579,106.789,249.806z"/>
										</g>
									</g>
								</g>
								<path style="fill:#FDCC9B;" d="M102.601,252.262c0.09,14.836-11.978,27.045-26.814,27.133l-12.773,0.072          c-14.836,0.09-27.045-11.978-27.135-26.811l-0.066-11.609C35.724,226.209,47.79,214,62.624,213.913l12.776-0.076          c14.836-0.086,27.048,11.979,27.134,26.816L102.601,252.262z"/>
								<path style="fill:#F4B882;" d="M73.118,259.613c0.007,1.291-1.648,2.35-3.695,2.363c-2.049,0.012-3.717-1.025-3.725-2.32          c-0.008-1.291,1.649-2.349,3.697-2.359C71.441,257.283,73.108,258.322,73.118,259.613z"/>
								<path style="fill:#FFFFFF;" d="M69.407,266.317h-9.184c0,0,0.813,6.26,9.184,6.26c8.374,0,9.186-6.26,9.186-6.26H69.407z"/>
								<g>
									<g>
										<path style="fill:#352215;" d="M85.438,252.5c0.037-1.127,0.516-2.735,1.873-2.819c1.347-0.084,1.839,1.826,1.872,2.819            c0.026,0.804,1.276,0.807,1.25,0c-0.062-1.876-1.027-3.939-3.122-4.069c-2.088-0.13-3.068,2.398-3.123,4.069            C84.162,253.307,85.412,253.304,85.438,252.5L85.438,252.5z"/>
									</g>
									<g>
										<path style="fill:#352215;" d="M49.245,252.5c0.037-1.126,0.517-2.734,1.873-2.819c1.347-0.084,1.84,1.825,1.873,2.819            c0.026,0.804,1.276,0.807,1.25,0c-0.062-1.877-1.028-3.939-3.123-4.069c-2.088-0.13-3.068,2.399-3.123,4.069            C47.969,253.307,49.219,253.304,49.245,252.5L49.245,252.5z"/>
									</g>
								</g>
							</g>
						</g>
					</g>
					<path style="fill:#A9BF52;" d="M77.608,284.195c-1.431,2.358-8.55,12.139-8.55,12.139s-6.53-9.932-7.869-12.139       c0,0-26.091-0.604-32.091,14.715h40.117h0.184h40.118C103.517,283.592,77.608,284.195,77.608,284.195z"/>
					<g>
						<g>
							<path style="fill:#6D4D42;" d="M83.429,244.468c2.374-1.253,5.354-1.196,7.479,0.504c0.597,0.475,1.446-0.364,0.845-0.846         c-2.567-2.051-6.033-2.217-8.926-0.69C82.146,243.796,82.75,244.825,83.429,244.468L83.429,244.468z"/>
						</g>
						<g>
							<path style="fill:#6D4D42;" d="M54.983,244.468c-2.375-1.253-5.355-1.196-7.48,0.504c-0.595,0.475-1.444-0.364-0.845-0.846         c2.567-2.051,6.033-2.217,8.927-0.69C56.265,243.796,55.662,244.825,54.983,244.468L54.983,244.468z"/>
						</g>
					</g>
				</g>
				<path style="fill:#8C5438;" d="M103.718,248.426c0,0,7.642-45.306-33.257-45.306c-43.64,0-35.781,44.114-35.781,44.114      s6.277-5.04,13.138-6.935l2.31-9.571l0.573,9.447l7.901-0.758l1.764-12.971l2.701,12.719      C63.066,239.166,97.495,238.284,103.718,248.426z"/>
			</g>
			</svg>