<?xml version='1.0' encoding='UTF-8'?>
<svg xmlns="http://www.w3.org/2000/svg" xmlns:xlink="http://www.w3.org/1999/xlink" version="1.1" x="0px" y="0px" viewBox="145 200 90 105" style="enable-background:new 0 0 500 500;" xml:space="preserve"><g>
				<g>
					<rect x="179.213" y="275.838" style="fill:#BF8158;" width="16.419" height="16.713"/>
					<g>
						<g>
							<g>
								<g>
									<g>
										<path style="fill:#BF8158;" d="M161,250.18c0.023,3.832-3.066,6.956-6.896,6.978c-3.835,0.026-6.959-3.063-6.981-6.896            c-0.023-3.832,3.066-6.959,6.899-6.979C157.854,243.26,160.977,246.35,161,250.18z"/>
										<path style="fill:#AA6944;" d="M158.091,250.196c0.015,2.227-1.781,4.042-4.006,4.057            c-2.225,0.011-4.041-1.782-4.055-4.009c-0.013-2.227,1.781-4.041,4.007-4.052            C156.265,246.176,158.077,247.971,158.091,250.196z"/>
									</g>
								</g>
								<g>
									<g>
										<path style="fill:#BF8158;" d="M227.724,249.787c0.024,3.832-3.066,6.958-6.898,6.979            c-3.832,0.025-6.958-3.064-6.98-6.896c-0.023-3.832,3.066-6.956,6.898-6.979            C224.575,242.867,227.699,245.956,227.724,249.787z"/>
										<path style="fill:#AA6944;" d="M224.813,249.805c0.014,2.227-1.781,4.04-4.006,4.054            c-2.225,0.012-4.041-1.781-4.055-4.009c-0.014-2.225,1.779-4.04,4.01-4.054            C222.987,245.785,224.8,247.578,224.813,249.805z"/>
									</g>
								</g>
							</g>
							<path style="fill:#BF8158;" d="M220.624,252.262c0.09,14.836-11.977,27.045-26.814,27.132l-12.773,0.072         c-14.836,0.09-27.045-11.977-27.134-26.811l-0.066-11.609c-0.089-14.837,11.979-27.046,26.812-27.133l12.776-0.076         c14.836-0.086,27.048,11.979,27.134,26.816L220.624,252.262z"/>
							<path style="fill:#AA6944;" d="M191.142,259.611c0.007,1.293-1.648,2.352-3.695,2.365c-2.049,0.012-3.717-1.027-3.725-2.321         c-0.008-1.292,1.648-2.349,3.697-2.359C189.465,257.281,191.132,258.322,191.142,259.611z"/>
							<g>
								<path style="fill:#352215;" d="M207.832,252.498c0,1.895-1.124,3.445-2.497,3.445c-1.375,0-2.498-1.551-2.498-3.445          c0-1.893,1.123-3.443,2.498-3.443C206.708,249.055,207.832,250.605,207.832,252.498z"/>
								<path style="fill:#352215;" d="M171.64,252.498c0,1.895-1.124,3.445-2.498,3.445c-1.373,0-2.497-1.551-2.497-3.445          c0-1.893,1.124-3.443,2.497-3.443C170.516,249.055,171.64,250.605,171.64,252.498z"/>
							</g>
							<g>
								<g>
									<path style="fill:#350304;" d="M200.709,244.064c2.791-2.393,6.483-2.029,9.227,0.229c0.67,0.55,1.496-0.506,0.83-1.054           c-3.18-2.615-7.612-3.032-10.868-0.242C199.245,243.556,200.051,244.63,200.709,244.064L200.709,244.064z"/>
								</g>
								<g>
									<path style="fill:#350304;" d="M173.768,244.064c-2.791-2.393-6.483-2.029-9.228,0.229c-0.67,0.55-1.496-0.506-0.83-1.054           c3.18-2.615,7.612-3.032,10.868-0.242C175.231,243.556,174.426,244.63,173.768,244.064L173.768,244.064z"/>
								</g>
							</g>
						</g>
					</g>
				</g>
				<path style="fill:#00ACC2;" d="M195.632,284.194c-2.77,4.565-13.65,4.565-16.419,0c0,0-26.091-0.604-32.091,14.716h40.117h0.184      h40.117C221.54,283.59,195.632,284.194,195.632,284.194z"/>
				<path style="fill:#FFFFFF;" d="M187.686,265.926h-9.184c0,0,0.813,6.26,9.184,6.26c8.374,0,9.186-6.26,9.186-6.26H187.686z"/>
				<path style="fill:#350304;" d="M220.407,218.032c-1.865-16.794-33.418-16.794-33.418-16.794s-28.384,0-33.417,16.794      c-1.261,4.205-6.146,17.788-1.729,24.972c3.944,10.855,2.803,7.14,3.537,11.249c0,0,2.945-4.292,2.488-8.135      c-0.515-4.327,1.465-8.018,0.889-12.612c-0.575-4.593,0.96-7.761,9.026-9.053c8.065-1.292,12.483,0.862,19.205,0.862      c6.722,0,11.14-2.153,19.206-0.862c8.065,1.292,9.602,4.46,9.025,9.053c-0.576,4.594,1.403,8.285,0.888,12.612      c-0.456,3.843,3.272,8.135,3.272,8.135c-0.25-2.493,2.754-11.249,2.754-11.249C226.553,235.82,220.884,222.326,220.407,218.032z      "/>
			</g>
			</svg>