<?xml version='1.0' encoding='UTF-8'?>
<svg xmlns="http://www.w3.org/2000/svg" xmlns:xlink="http://www.w3.org/1999/xlink" version="1.1" x="0px" y="0px" viewBox="265 320 95 110" style="enable-background:new 0 0 500 500;" xml:space="preserve"><g>
				<g>
					<g>
						<rect x="301.898" y="401.853" style="fill:#FDCC9B;" width="16.42" height="16.713"/>
						<g>
							<g>
								<g>
									<g>
										<g>
											<path style="fill:#FDCC9B;" d="M283.685,376.195c0.024,3.832-3.066,6.956-6.896,6.978             c-3.834,0.025-6.959-3.063-6.982-6.896c-0.022-3.832,3.066-6.959,6.899-6.979             C280.539,369.275,283.662,372.365,283.685,376.195z"/>
											<path style="fill:#F4B882;" d="M280.777,376.211c0.014,2.228-1.781,4.043-4.007,4.057             c-2.225,0.012-4.04-1.781-4.054-4.008c-0.014-2.228,1.781-4.041,4.006-4.053             C278.95,372.191,280.764,373.986,280.777,376.211z"/>
										</g>
									</g>
									<g>
										<g>
											<path style="fill:#FDCC9B;" d="M350.41,375.803c0.023,3.832-3.066,6.957-6.898,6.979             c-3.833,0.025-6.959-3.065-6.981-6.897c-0.023-3.833,3.066-6.957,6.899-6.979             C347.262,368.882,350.385,371.971,350.41,375.803z"/>
											<path style="fill:#F4B882;" d="M347.499,375.82c0.015,2.227-1.78,4.041-4.006,4.055c-2.225,0.012-4.04-1.781-4.054-4.01             c-0.014-2.225,1.779-4.04,4.009-4.054C345.673,371.8,347.486,373.593,347.499,375.82z"/>
										</g>
									</g>
								</g>
								<path style="fill:#FDCC9B;" d="M343.31,378.276c0.089,14.836-11.978,27.045-26.814,27.132l-12.773,0.072          c-14.836,0.09-27.046-11.977-27.135-26.811l-0.066-11.609c-0.089-14.838,11.979-27.047,26.813-27.134l12.775-0.076          c14.836-0.087,27.048,11.98,27.135,26.815L343.31,378.276z"/>
								<path style="fill:#F4B882;" d="M313.828,385.627c0.006,1.292-1.648,2.35-3.695,2.364c-2.05,0.012-3.717-1.026-3.725-2.321          c-0.008-1.291,1.648-2.348,3.697-2.359C312.15,383.297,313.818,384.337,313.828,385.627z"/>
								<path style="fill:#FFFFFF;" d="M310.115,390.332h-11.434c0,0,1.012,8.846,11.434,8.846c10.426,0,11.437-8.846,11.437-8.846          H310.115z"/>
								<g>
									<g>
										<path style="fill:#352215;" d="M326.148,378.514c0.037-1.126,0.516-2.734,1.872-2.818c1.347-0.084,1.84,1.824,1.872,2.818            c0.026,0.804,1.276,0.807,1.25,0c-0.061-1.877-1.027-3.938-3.122-4.068c-2.088-0.131-3.067,2.398-3.122,4.068            C324.872,379.32,326.122,379.317,326.148,378.514L326.148,378.514z"/>
									</g>
									<g>
										<path style="fill:#352215;" d="M289.955,378.514c0.037-1.127,0.517-2.734,1.873-2.818c1.347-0.084,1.84,1.825,1.872,2.818            c0.026,0.804,1.276,0.807,1.25,0c-0.061-1.877-1.027-3.938-3.122-4.068c-2.088-0.131-3.068,2.397-3.123,4.068            C288.679,379.32,289.929,379.317,289.955,378.514L289.955,378.514z"/>
									</g>
								</g>
								<g>
									<g>
										<path style="fill:#63453D;" d="M323.395,370.08c2.791-2.393,6.484-2.029,9.228,0.228c0.67,0.549,1.496-0.506,0.83-1.055            c-3.18-2.615-7.613-3.031-10.869-0.242C321.932,369.57,322.736,370.645,323.395,370.08L323.395,370.08z"/>
									</g>
									<g>
										<path style="fill:#63453D;" d="M296.453,370.08c-2.791-2.393-6.483-2.029-9.228,0.228c-0.67,0.549-1.496-0.506-0.83-1.055            c3.18-2.615,7.612-3.031,10.868-0.242C297.917,369.57,297.111,370.645,296.453,370.08L296.453,370.08z"/>
									</g>
								</g>
							</g>
						</g>
					</g>
					<path style="fill:#A9BF52;" d="M318.318,410.209c-2.77,4.565-13.65,4.565-16.42,0c0,0-26.09-0.604-32.091,14.716h40.118h0.183       h40.118C344.226,409.605,318.318,410.209,318.318,410.209z"/>
				</g>
				<g>
					<path style="fill:#63453D;" d="M278.532,374.44c0,0,0.566-4.773,2.93-8.596c1.297-2.094,3.728-7.174,7.166-9.971       c5.857-4.763,24.674,1.659,42.653-3.537c0,0-0.563,3.563,2.621,7.126c3.184,3.564,9.89,8.141,9.703,13.93       c0,0,1.973-4.023,4.41-2.525c0,0,4.615-20.609-8.12-24.765c0,0,0.412-10.212-9.55-15.441       c-11.747-6.165-17.556-11.163-17.556-11.163s1.512,4.133,3.752,5.558c0,0-6.534-0.407-10.693-6.396       c0,0-3.478,4.485,1.927,7.103c0,0-4.177,0.03-5.745-2.51c0,0-1.5,4.377,6.026,5.553c0,0-9.096,0.393-8.276-5.876       c0,0-7.081,3.797-13.169,11.369c0,0,2.247-4.455,3.466-5.419c0,0-5.161,2.373-8.429,10.911c0,0-5.058,6.755-6.931,14.179       c-1.87,7.423-2.505,12.067-1.382,16.224C273.336,370.193,277.53,369.725,278.532,374.44z"/>
				</g>
			</g>
			</svg>