<?xml version='1.0' encoding='UTF-8'?>
<svg xmlns="http://www.w3.org/2000/svg" xmlns:xlink="http://www.w3.org/1999/xlink" version="1.1" x="0px" y="0px" viewBox="390 195 95 105" style="enable-background:new 0 0 500 500;" xml:space="preserve"><g>
				<g>
					<g>
						<rect x="424.143" y="271.429" style="fill:#FDCC9B;" width="16.42" height="25.905"/>
						<g>
							<g>
								<g>
									<g>
										<g>
											<path style="fill:#FDCC9B;" d="M405.93,245.771c0.023,3.833-3.066,6.956-6.896,6.979             c-3.834,0.025-6.959-3.064-6.981-6.896c-0.022-3.833,3.066-6.959,6.899-6.98             C402.783,238.851,405.906,241.94,405.93,245.771z"/>
											<path style="fill:#F4B882;" d="M403.021,245.787c0.014,2.227-1.781,4.043-4.007,4.057             c-2.225,0.011-4.04-1.782-4.054-4.009c-0.014-2.228,1.781-4.041,4.006-4.052             C401.194,241.767,403.008,243.562,403.021,245.787z"/>
										</g>
									</g>
									<g>
										<g>
											<path style="fill:#FDCC9B;" d="M472.654,245.378c0.023,3.832-3.066,6.958-6.898,6.979             c-3.833,0.025-6.959-3.064-6.982-6.896c-0.022-3.833,3.066-6.956,6.899-6.979             C469.506,238.458,472.629,241.547,472.654,245.378z"/>
											<path style="fill:#F4B882;" d="M469.743,245.396c0.015,2.227-1.78,4.04-4.006,4.055c-2.225,0.011-4.04-1.782-4.054-4.009             c-0.014-2.225,1.779-4.041,4.009-4.054C467.917,241.376,469.73,243.169,469.743,245.396z"/>
										</g>
									</g>
								</g>
								<path style="fill:#FDCC9B;" d="M465.555,247.852c0.089,14.836-11.978,27.045-26.814,27.132l-12.773,0.072          c-14.836,0.09-27.046-11.978-27.135-26.812l-0.066-11.609c-0.089-14.837,11.978-27.046,26.813-27.133l12.775-0.076          c14.836-0.087,27.048,11.979,27.135,26.816L465.555,247.852z"/>
								<path style="fill:#F4B882;" d="M436.072,255.203c0.006,1.291-1.648,2.35-3.695,2.363c-2.05,0.012-3.717-1.025-3.725-2.32          c-0.008-1.291,1.648-2.349,3.697-2.359C434.395,252.873,436.063,253.912,436.072,255.203z"/>
								<path style="fill:#FFFFFF;" d="M432.359,259.907h-11.434c0,0,1.012,8.847,11.434,8.847c10.426,0,11.437-8.847,11.437-8.847          H432.359z"/>
								<g>
									<g>
										<path style="fill:#352215;" d="M448.393,248.089c0.037-1.126,0.516-2.734,1.872-2.819c1.347-0.084,1.84,1.825,1.872,2.819            c0.026,0.804,1.276,0.807,1.25,0c-0.061-1.877-1.027-3.938-3.122-4.069c-2.088-0.13-3.067,2.398-3.122,4.069            C447.116,248.896,448.366,248.893,448.393,248.089L448.393,248.089z"/>
									</g>
									<g>
										<path style="fill:#352215;" d="M412.199,248.089c0.037-1.126,0.517-2.734,1.873-2.819c1.347-0.084,1.84,1.826,1.872,2.819            c0.026,0.804,1.276,0.807,1.25,0c-0.061-1.876-1.027-3.938-3.122-4.069c-2.088-0.13-3.068,2.398-3.123,4.069            C410.923,248.896,412.173,248.893,412.199,248.089L412.199,248.089z"/>
									</g>
								</g>
								<g>
									<g>
										<path style="fill:#895837;" d="M445.639,239.655c2.791-2.393,6.484-2.029,9.228,0.229c0.67,0.55,1.496-0.506,0.83-1.054            c-3.18-2.615-7.613-3.032-10.869-0.242C444.176,239.146,444.98,240.221,445.639,239.655L445.639,239.655z"/>
									</g>
									<g>
										<path style="fill:#895837;" d="M418.697,239.655c-2.791-2.393-6.483-2.029-9.228,0.229c-0.67,0.55-1.496-0.506-0.83-1.054            c3.18-2.615,7.612-3.032,10.868-0.242C420.161,239.146,419.355,240.221,418.697,239.655L418.697,239.655z"/>
									</g>
								</g>
							</g>
						</g>
					</g>
				</g>
				<path style="fill:#C83432;" d="M440.917,284.195c-1.43,2.358-8.549,12.139-8.549,12.139s-6.531-9.932-7.869-12.139      c0,0-26.092-0.604-32.092,14.715h40.117h0.184h40.119C466.825,283.592,440.917,284.195,440.917,284.195z"/>
				<path style="fill:#895837;" d="M398.991,238.876c0,0,32.039-7.876,44.805-18.376c0,0,13.398,14.248,21.707,18.374      c0,0,5.925-35.154-32.886-35.154C393.981,203.72,398.991,238.876,398.991,238.876z"/>
			</g>
			</svg>