<?xml version='1.0' encoding='UTF-8'?>
<svg xmlns="http://www.w3.org/2000/svg" xmlns:xlink="http://www.w3.org/1999/xlink" version="1.1" x="0px" y="0px" viewBox="10 320 120 110" style="enable-background:new 0 0 500 500;" xml:space="preserve"><g>
				<g>
					<g>
						<rect x="58.254" y="401.853" style="fill:#BF8158;" width="16.42" height="16.713"/>
						<g>
							<g>
								<g>
									<g>
										<g>
											<path style="fill:#BF8158;" d="M40.041,376.195c0.023,3.832-3.066,6.956-6.896,6.978             c-3.835,0.025-6.959-3.063-6.981-6.896c-0.022-3.832,3.066-6.959,6.899-6.979             C36.895,369.275,40.018,372.365,40.041,376.195z"/>
											<path style="fill:#AA6944;" d="M37.132,376.211c0.015,2.228-1.781,4.043-4.006,4.057             c-2.225,0.012-4.041-1.781-4.055-4.008c-0.013-2.228,1.781-4.041,4.007-4.053             C35.306,372.191,37.118,373.986,37.132,376.211z"/>
										</g>
									</g>
									<g>
										<g>
											<path style="fill:#BF8158;" d="M106.766,375.803c0.024,3.832-3.066,6.957-6.898,6.979             c-3.833,0.025-6.959-3.065-6.982-6.897c-0.022-3.833,3.066-6.957,6.9-6.979             C103.617,368.882,106.74,371.971,106.766,375.803z"/>
											<path style="fill:#AA6944;" d="M103.854,375.82c0.015,2.227-1.781,4.041-4.006,4.055             c-2.225,0.012-4.041-1.781-4.055-4.01c-0.014-2.225,1.779-4.04,4.01-4.054C102.028,371.8,103.841,373.593,103.854,375.82             z"/>
										</g>
									</g>
								</g>
								<path style="fill:#BF8158;" d="M99.666,378.276c0.089,14.836-11.979,27.045-26.814,27.132l-12.774,0.072          c-14.837,0.09-27.046-11.977-27.135-26.811l-0.066-11.609c-0.089-14.838,11.979-27.047,26.813-27.134l12.775-0.076          c14.836-0.087,27.048,11.98,27.134,26.815L99.666,378.276z"/>
								<path style="fill:#AA6944;" d="M70.183,385.627c0.007,1.292-1.648,2.35-3.695,2.364c-2.049,0.012-3.716-1.026-3.725-2.321          c-0.007-1.291,1.648-2.348,3.697-2.359C68.506,383.297,70.174,384.337,70.183,385.627z"/>
								<g>
									<path style="fill:#352215;" d="M86.873,378.514c0,1.895-1.124,3.444-2.497,3.444c-1.374,0-2.498-1.55-2.498-3.444           c0-1.895,1.124-3.443,2.498-3.443C85.749,375.07,86.873,376.619,86.873,378.514z"/>
									<path style="fill:#352215;" d="M50.681,378.514c0,1.895-1.124,3.444-2.498,3.444c-1.373,0-2.497-1.55-2.497-3.444           c0-1.895,1.124-3.443,2.497-3.443C49.557,375.07,50.681,376.619,50.681,378.514z"/>
								</g>
								<g>
									<g>
										<path style="fill:#2D2C2B;" d="M79.75,370.08c2.791-2.393,6.483-2.029,9.228,0.228c0.67,0.549,1.496-0.506,0.83-1.055            c-3.18-2.615-7.612-3.031-10.868-0.242C78.286,369.57,79.092,370.645,79.75,370.08L79.75,370.08z"/>
									</g>
									<g>
										<path style="fill:#2D2C2B;" d="M52.809,370.08c-2.791-2.393-6.483-2.029-9.228,0.228c-0.67,0.549-1.496-0.506-0.83-1.055            c3.18-2.615,7.612-3.031,10.868-0.242C54.272,369.57,53.467,370.645,52.809,370.08L52.809,370.08z"/>
									</g>
								</g>
								<g>
									<g>
										<path style="fill:#A9703B;" d="M57.727,392.169c2.501,5.792,14.87,5.856,17.108-0.183            c0.345-0.928-1.135-1.322-1.475-0.406c-1.8,4.853-12.375,4.303-14.312-0.184            C58.656,390.494,57.338,391.273,57.727,392.169L57.727,392.169z"/>
									</g>
								</g>
							</g>
						</g>
					</g>
					<path style="fill:#FCB316;" d="M74.674,410.209c-2.77,4.565-13.65,4.565-16.42,0c0,0-26.091-0.604-32.091,14.716H66.28h0.184       h40.118C100.581,409.605,74.674,410.209,74.674,410.209z"/>
				</g>
				<path style="fill:#350304;" d="M66.731,332.7c0,0-39.259-1.18-36.92,37.862c0,0,3.91,0.306,4.917,5.283      c0,0-0.188-18.509,4.89-20.811c5.077-2.303,17.792,2.533,27.113,2.533c9.321,0,22.039-4.836,27.115-2.533      c5.077,2.303,4.888,20.811,4.888,20.811c1.007-4.978,4.919-5.283,4.919-5.283C105.992,331.521,66.731,332.7,66.731,332.7z"/>
			</g>
			</svg>