<?xml version='1.0' encoding='UTF-8'?>
<svg xmlns="http://www.w3.org/2000/svg" xmlns:xlink="http://www.w3.org/1999/xlink" version="1.1" x="0px" y="0px" viewBox="260 70 100 100" style="enable-background:new 0 0 500 500;" xml:space="preserve"><g>
				<g>
					<rect x="301.898" y="150.262" style="fill:#FDCC9B;" width="16.42" height="16.712"/>
					<g>
						<g>
							<g>
								<g>
									<g>
										<path style="fill:#FDCC9B;" d="M283.685,124.604c0.024,3.832-3.066,6.956-6.896,6.979            c-3.834,0.026-6.959-3.064-6.982-6.896c-0.022-3.833,3.066-6.959,6.899-6.979            C280.539,117.684,283.662,120.773,283.685,124.604z"/>
										<path style="fill:#F4B882;" d="M280.777,124.62c0.014,2.227-1.781,4.042-4.007,4.057c-2.225,0.011-4.04-1.782-4.054-4.009            c-0.014-2.228,1.781-4.041,4.006-4.052C278.95,120.6,280.764,122.395,280.777,124.62z"/>
									</g>
								</g>
								<g>
									<g>
										<path style="fill:#FDCC9B;" d="M350.41,124.211c0.023,3.832-3.066,6.958-6.898,6.979            c-3.833,0.025-6.959-3.064-6.981-6.896c-0.023-3.833,3.066-6.956,6.899-6.979            C347.262,117.29,350.385,120.38,350.41,124.211z"/>
										<path style="fill:#F4B882;" d="M347.499,124.229c0.015,2.227-1.78,4.041-4.006,4.055c-2.225,0.011-4.04-1.782-4.054-4.009            c-0.014-2.225,1.779-4.04,4.009-4.054C345.673,120.209,347.486,122.002,347.499,124.229z"/>
									</g>
								</g>
							</g>
							<path style="fill:#FDCC9B;" d="M343.31,126.685c0.089,14.836-11.978,27.045-26.814,27.132l-12.773,0.072         c-14.836,0.09-27.046-11.978-27.135-26.812l-0.066-11.609c-0.089-14.837,11.979-27.046,26.813-27.133l12.775-0.076         c14.836-0.086,27.048,11.979,27.135,26.816L343.31,126.685z"/>
							<path style="fill:#F4B882;" d="M313.828,134.036c0.006,1.292-1.648,2.351-3.695,2.364c-2.05,0.012-3.717-1.026-3.725-2.321         c-0.008-1.292,1.648-2.349,3.697-2.359C312.15,131.706,313.818,132.746,313.828,134.036z"/>
							<path style="fill:#FFFFFF;" d="M310.115,138.74h-11.434c0,0,1.012,8.847,11.434,8.847c10.426,0,11.437-8.847,11.437-8.847         H310.115z"/>
							<g>
								<g>
									<path style="fill:#352215;" d="M326.148,126.922c0.037-1.126,0.516-2.734,1.872-2.819c1.347-0.084,1.84,1.825,1.872,2.819           c0.026,0.804,1.276,0.807,1.25,0c-0.061-1.877-1.027-3.938-3.122-4.069c-2.088-0.13-3.067,2.398-3.122,4.069           C324.872,127.729,326.122,127.726,326.148,126.922L326.148,126.922z"/>
								</g>
								<g>
									<path style="fill:#352215;" d="M289.955,126.922c0.037-1.127,0.517-2.734,1.873-2.819c1.347-0.084,1.84,1.826,1.872,2.819           c0.026,0.804,1.276,0.807,1.25,0c-0.061-1.877-1.027-3.938-3.122-4.069c-2.088-0.13-3.068,2.398-3.123,4.069           C288.679,127.729,289.929,127.726,289.955,126.922L289.955,126.922z"/>
								</g>
							</g>
							<g>
								<g>
									<path style="fill:#964711;" d="M323.395,118.488c2.791-2.393,6.484-2.029,9.228,0.229c0.67,0.55,1.496-0.506,0.83-1.054           c-3.18-2.615-7.613-3.032-10.869-0.242C321.932,117.979,322.736,119.054,323.395,118.488L323.395,118.488z"/>
								</g>
								<g>
									<path style="fill:#964711;" d="M296.453,118.488c-2.791-2.393-6.483-2.029-9.228,0.229c-0.67,0.55-1.496-0.506-0.83-1.054           c3.18-2.615,7.612-3.032,10.868-0.242C297.917,117.979,297.111,119.054,296.453,118.488L296.453,118.488z"/>
								</g>
							</g>
						</g>
					</g>
				</g>
				<path style="fill:#398E3D;" d="M318.318,158.618c-2.77,4.565-13.65,4.565-16.42,0c0,0-26.09-0.604-32.091,14.715h40.118h0.183      h40.118C344.226,158.014,318.318,158.618,318.318,158.618z"/>
				<path style="fill:#A86027;" d="M312.974,82.746c0.778-2.389,1.557-4.778,2.334-7.168c0.475-1.459-1.813-2.094-2.285-0.644      c-0.838,2.576-1.676,5.15-2.515,7.726c-0.294-0.003-0.592-0.004-0.893-0.002c-1.747-1.499-3.494-2.996-5.241-4.495      c-1.154-0.988-2.849,0.676-1.683,1.675c1.14,0.976,2.277,1.952,3.417,2.928c-34.864,2.099-32.321,32.576-31.421,36.77      c0,0,12.532-0.974,19.393-9.914c0,0-3.512,6.685-6.86,8.94c0,0,22.391-3.105,29.246-16.686c0,0,10.875,14.64,23.086,16.06      l4.035,0.789C343.586,118.724,347.28,84.727,312.974,82.746z"/>
			</g>
			</svg>