<?xml version='1.0' encoding='UTF-8'?>
<svg xmlns="http://www.w3.org/2000/svg" xmlns:xlink="http://www.w3.org/1999/xlink" version="1.1" x="0px" y="0px" viewBox="130 320 110 110" style="enable-background:new 0 0 500 500;" xml:space="preserve"><g>
				<path style="fill:#DC5C05;" d="M218.646,411.725c0,0-14.433,6.727-23.015,8.525c-1.303-4.36-0.906-10.441-1.056-14.861      c3.528-3.122,17.911-7.938,20.377-13.394c1.23-2.722,2.367-5.957,3.146-9.225c1.275,0.227,2.98-1.025,4.364-3.52      c0-0.463-1.97,29.017,1.023,37.227C223.487,416.478,220.268,415.83,218.646,411.725z"/>
				<path style="fill:#DC5C05;" d="M157.129,411.725c0,0,12.876,6.227,21.459,8.025c1.3-4.36,1.075-11.33,1.226-15.75      c-3.527-3.122-17.549-6.549-20.013-12.005c-1.23-2.722-2.521-6.087-3.297-9.355c-1.267,1.036-2.827-0.432-4.215-2.926      c0,0.007,2.993,28.554,0,36.764C152.289,416.478,155.509,415.83,157.129,411.725z"/>
				<g>
					<g>
						<rect x="179.213" y="401.853" style="fill:#FDCC9B;" width="16.419" height="16.713"/>
						<g>
							<g>
								<g>
									<g>
										<g>
											<path style="fill:#FDCC9B;" d="M161,376.195c0.022,3.832-3.066,6.956-6.898,6.978c-3.834,0.025-6.958-3.063-6.981-6.896             c-0.021-3.832,3.066-6.959,6.899-6.979C157.852,369.275,160.977,372.365,161,376.195z"/>
											<path style="fill:#F4B882;" d="M158.091,376.211c0.015,2.228-1.781,4.043-4.007,4.057             c-2.225,0.012-4.04-1.781-4.054-4.008c-0.014-2.228,1.781-4.041,4.006-4.053             C156.264,372.191,158.077,373.986,158.091,376.211z"/>
										</g>
									</g>
									<g>
										<g>
											<path style="fill:#FDCC9B;" d="M227.725,375.803c0.023,3.832-3.066,6.957-6.899,6.979             c-3.833,0.025-6.958-3.065-6.981-6.897c-0.023-3.833,3.066-6.957,6.899-6.979             C224.576,368.882,227.699,371.971,227.725,375.803z"/>
											<path style="fill:#F4B882;" d="M224.813,375.82c0.016,2.227-1.78,4.041-4.006,4.055c-2.225,0.012-4.04-1.781-4.054-4.01             c-0.014-2.225,1.779-4.04,4.009-4.054C222.986,371.8,224.8,373.593,224.813,375.82z"/>
										</g>
									</g>
								</g>
								<path style="fill:#FDCC9B;" d="M220.624,378.276c0.089,14.836-11.977,27.045-26.814,27.132l-12.773,0.072          c-14.836,0.09-27.046-11.977-27.135-26.811l-0.066-11.609c-0.089-14.838,11.978-27.047,26.812-27.134l12.776-0.076          c14.836-0.087,27.047,11.98,27.134,26.815L220.624,378.276z"/>
								<path style="fill:#F4B882;" d="M191.142,385.627c0.007,1.292-1.648,2.35-3.695,2.364c-2.05,0.012-3.717-1.026-3.725-2.321          c-0.008-1.291,1.648-2.348,3.697-2.359C189.465,383.297,191.132,384.337,191.142,385.627z"/>
								<path style="fill:#FFFFFF;" d="M187.431,392.332h-9.184c0,0,0.813,6.26,9.184,6.26c8.374,0,9.186-6.26,9.186-6.26H187.431z"/>
								<g>
									<path style="fill:#352215;" d="M207.832,378.514c0,1.895-1.124,3.444-2.498,3.444s-2.497-1.55-2.497-3.444           c0-1.895,1.123-3.443,2.497-3.443S207.832,376.619,207.832,378.514z"/>
									<path style="fill:#352215;" d="M171.639,378.514c0,1.895-1.123,3.444-2.497,3.444c-1.374,0-2.498-1.55-2.498-3.444           c0-1.895,1.124-3.443,2.498-3.443C170.516,375.07,171.639,376.619,171.639,378.514z"/>
								</g>
							</g>
						</g>
					</g>
					<path style="fill:#059D86;" d="M195.632,410.209c-1.431,2.359-5.026,7.435-8.55,7.356c-3.297-0.073-6.53-5.149-7.869-7.356       c0,0-26.091-0.604-32.092,14.716h40.118h0.183h40.119C221.539,409.605,195.632,410.209,195.632,410.209z"/>
					<g>
						<g>
							<path style="fill:#6D4D42;" d="M201.452,370.482c2.374-1.254,5.355-1.197,7.48,0.504c0.597,0.475,1.446-0.365,0.845-0.846         c-2.567-2.051-6.033-2.217-8.926-0.689C200.17,369.81,200.773,370.84,201.452,370.482L201.452,370.482z"/>
						</g>
						<g>
							<path style="fill:#6D4D42;" d="M173.007,370.482c-2.375-1.254-5.355-1.197-7.48,0.504c-0.595,0.475-1.444-0.365-0.845-0.846         c2.567-2.051,6.033-2.217,8.927-0.689C174.288,369.81,173.686,370.84,173.007,370.482L173.007,370.482z"/>
						</g>
					</g>
				</g>
				<path style="fill:#DC5C05;" d="M155.906,372.21c0,0,2.281-7.371,3.955-8.711c0,0,42.297,6,45.074-14.381      c0,0,3.433,10.442,12.099,15.529c1.93,1.132,2.824,7.561,2.824,7.561s3.196-3.89,5.122-1.886c0,0,1.876-8.354-4.786-21.251      c-6.836-13.233-18.43-16.391-30.794-13.742c0,0-10.241-2.565-19.57,2.027c-9.331,4.592-12.599,9.482-15.471,15.325      c-2.87,5.843-3.331,17.34-2.79,17.302C154.476,369.78,155.906,372.21,155.906,372.21z"/>
			</g>
		</svg>