<?xml version='1.0' encoding='UTF-8'?>
<svg xmlns="http://www.w3.org/2000/svg" xmlns:xlink="http://www.w3.org/1999/xlink" version="1.1" x="0px" y="0px" viewBox="20 75 95 105" style="enable-background:new 0 0 500 500;" xml:space="preserve"><g>
				<g>
					<rect x="58.254" y="150.262" style="fill:#FDCC9B;" width="16.42" height="16.712"/>
					<g>
						<g>
							<g>
								<g>
									<g>
										<path style="fill:#FDCC9B;" d="M40.041,124.604c0.023,3.832-3.066,6.956-6.896,6.979            c-3.835,0.026-6.959-3.064-6.981-6.896c-0.022-3.833,3.066-6.959,6.899-6.979            C36.895,117.684,40.018,120.773,40.041,124.604z"/>
										<path style="fill:#F4B882;" d="M37.132,124.62c0.015,2.227-1.781,4.042-4.006,4.057c-2.225,0.011-4.041-1.782-4.055-4.009            c-0.013-2.228,1.781-4.041,4.007-4.052C35.306,120.6,37.118,122.395,37.132,124.62z"/>
									</g>
								</g>
								<g>
									<g>
										<path style="fill:#FDCC9B;" d="M106.766,124.211c0.024,3.832-3.066,6.958-6.898,6.979            c-3.833,0.025-6.959-3.064-6.982-6.896c-0.022-3.833,3.066-6.956,6.9-6.979C103.617,117.29,106.74,120.38,106.766,124.211            z"/>
										<path style="fill:#F4B882;" d="M103.854,124.229c0.015,2.227-1.781,4.041-4.006,4.055            c-2.225,0.011-4.041-1.782-4.055-4.009c-0.014-2.225,1.779-4.04,4.01-4.054            C102.028,120.209,103.841,122.002,103.854,124.229z"/>
									</g>
								</g>
							</g>
							<path style="fill:#FDCC9B;" d="M99.666,126.685c0.089,14.836-11.979,27.045-26.814,27.132l-12.774,0.072         c-14.837,0.09-27.046-11.978-27.135-26.812l-0.066-11.609c-0.089-14.837,11.979-27.046,26.813-27.133l12.775-0.076         c14.836-0.086,27.048,11.979,27.134,26.816L99.666,126.685z"/>
							<path style="fill:#F4B882;" d="M70.183,134.036c0.007,1.292-1.648,2.351-3.695,2.364c-2.049,0.012-3.716-1.026-3.725-2.321         c-0.007-1.292,1.648-2.349,3.697-2.359C68.506,131.706,70.174,132.746,70.183,134.036z"/>
							<g>
								<path style="fill:#352215;" d="M86.873,126.922c0,1.894-1.124,3.444-2.497,3.444c-1.374,0-2.498-1.55-2.498-3.444          c0-1.894,1.124-3.444,2.498-3.444C85.749,123.479,86.873,125.028,86.873,126.922z"/>
								<path style="fill:#352215;" d="M50.681,126.922c0,1.894-1.124,3.444-2.498,3.444c-1.373,0-2.497-1.55-2.497-3.444          c0-1.894,1.124-3.444,2.497-3.444C49.557,123.479,50.681,125.028,50.681,126.922z"/>
							</g>
							<g>
								<g>
									<path style="fill:#2D2C2B;" d="M79.75,118.488c2.791-2.393,6.483-2.029,9.228,0.229c0.67,0.55,1.496-0.506,0.83-1.054           c-3.18-2.615-7.612-3.032-10.868-0.242C78.286,117.979,79.092,119.054,79.75,118.488L79.75,118.488z"/>
								</g>
								<g>
									<path style="fill:#2D2C2B;" d="M52.809,118.488c-2.791-2.393-6.483-2.029-9.228,0.229c-0.67,0.55-1.496-0.506-0.83-1.054           c3.18-2.615,7.612-3.032,10.868-0.242C54.272,117.979,53.467,119.054,52.809,118.488L52.809,118.488z"/>
								</g>
							</g>
							<g>
								<g>
									<path style="fill:#F1A58D;" d="M57.727,140.578c2.501,5.792,14.87,5.856,17.108-0.182c0.345-0.928-1.135-1.323-1.475-0.407           c-1.8,4.853-12.375,4.303-14.312-0.183C58.656,138.902,57.338,139.682,57.727,140.578L57.727,140.578z"/>
								</g>
							</g>
						</g>
					</g>
				</g>
				<path style="fill:#00ACC2;" d="M74.674,158.618c-2.77,4.565-13.65,4.565-16.42,0c0,0-26.091-0.604-32.091,14.715H66.28h0.184      h40.118C100.581,158.014,74.674,158.618,74.674,158.618z"/>
				<path style="fill:#2D2C2B;" d="M33.063,117.707c0,0,11.388-9.873,15.12-14.207c0,0,20.9,2.999,32.233-4.334      c0,0,12.06,14.981,19.196,18.157c0,0,7.153-35.49-33.341-35.49C26.163,81.834,33.063,117.707,33.063,117.707z"/>
			</g>
			</svg>