<?xml version='1.0' encoding='UTF-8'?>
<svg xmlns="http://www.w3.org/2000/svg" xmlns:xlink="http://www.w3.org/1999/xlink" version="1.1" x="0px" y="0px" viewBox="384 75 98 98" style="enable-background:new 0 0 500 500;" xml:space="preserve"><g>
				<path style="fill:#966544;" d="M465.052,131.272c-1.965-3.171-3.544-6.128-4.821-8.811c-0.765,0.825-1.538,1.2-2.177,0.788      c-0.676,3.027-1.577,5.875-2.638,8.401c-1.294,3.079-18.829,7.125-31.253,10.321c0.024-0.217,0.064-0.443,0.07-0.65      c-3.085-2.934-14.477-4.542-16.631-9.671c-1.075-2.558-1.987-5.45-2.666-8.521c-0.612,0.538-1.368,0.271-2.129-0.467      c-1.16,2.665-2.48,5.562-3.961,8.61c-9.293,19.119-7.911,31.891-1.262,40.054c1.971-0.838,60.137-3.556,69.279,0.213      C474.14,162.398,475.594,148.278,465.052,131.272z"/>
				<g>
					<g>
						<rect x="424.228" y="150.262" style="fill:#FDCC9B;" width="16.419" height="16.712"/>
						<g>
							<g>
								<g>
									<g>
										<g>
											<path style="fill:#FDCC9B;" d="M406.016,124.604c0.022,3.832-3.066,6.956-6.897,6.979             c-3.834,0.026-6.958-3.064-6.98-6.896c-0.022-3.833,3.066-6.959,6.898-6.979             C402.868,117.684,405.992,120.773,406.016,124.604z"/>
											<path style="fill:#F4B882;" d="M403.106,124.62c0.015,2.227-1.781,4.042-4.006,4.057             c-2.225,0.011-4.041-1.782-4.055-4.009c-0.014-2.228,1.781-4.041,4.006-4.052             C401.28,120.6,403.093,122.395,403.106,124.62z"/>
										</g>
									</g>
									<g>
										<g>
											<path style="fill:#FDCC9B;" d="M472.74,124.211c0.024,3.832-3.066,6.958-6.899,6.979             c-3.832,0.025-6.958-3.064-6.98-6.896c-0.023-3.833,3.066-6.956,6.898-6.979             C469.592,117.29,472.715,120.38,472.74,124.211z"/>
											<path style="fill:#F4B882;" d="M469.828,124.229c0.016,2.227-1.78,4.041-4.005,4.055             c-2.225,0.011-4.041-1.782-4.055-4.009c-0.014-2.225,1.779-4.04,4.01-4.054             C468.003,120.209,469.815,122.002,469.828,124.229z"/>
										</g>
									</g>
								</g>
								<path style="fill:#FDCC9B;" d="M465.64,126.685c0.09,14.836-11.978,27.045-26.814,27.132l-12.773,0.072          c-14.836,0.09-27.045-11.978-27.135-26.812l-0.066-11.609c-0.088-14.837,11.979-27.046,26.813-27.133l12.776-0.076          c14.836-0.086,27.048,11.979,27.134,26.816L465.64,126.685z"/>
								<path style="fill:#F4B882;" d="M436.157,134.036c0.007,1.292-1.648,2.351-3.695,2.364c-2.049,0.012-3.717-1.026-3.725-2.321          c-0.008-1.292,1.648-2.349,3.697-2.359C434.48,131.706,436.147,132.746,436.157,134.036z"/>
								<g>
									<path style="fill:#352215;" d="M452.848,126.922c0,1.894-1.124,3.444-2.497,3.444c-1.375,0-2.498-1.55-2.498-3.444           c0-1.894,1.123-3.444,2.498-3.444C451.724,123.479,452.848,125.028,452.848,126.922z"/>
									<path style="fill:#352215;" d="M416.655,126.922c0,1.894-1.124,3.444-2.498,3.444c-1.373,0-2.498-1.55-2.498-3.444           c0-1.894,1.125-3.444,2.498-3.444C415.531,123.479,416.655,125.028,416.655,126.922z"/>
								</g>
								<g>
									<g>
										<path style="fill:#F1A58D;" d="M423.965,141.578c2.501,5.792,14.87,5.856,17.108-0.182            c0.345-0.928-1.135-1.323-1.475-0.407c-1.8,4.853-12.375,4.303-14.313-0.183            C424.894,139.902,423.576,140.682,423.965,141.578L423.965,141.578z"/>
									</g>
								</g>
							</g>
						</g>
					</g>
					<path style="fill:#FDCC9B;" d="M440.647,158.618c-1.431,2.358-5.026,7.435-8.55,7.356c-3.297-0.073-6.53-5.149-7.869-7.356       c0,0-26.091-0.604-32.091,14.715h40.117h0.184h40.118C466.556,158.014,440.647,158.618,440.647,158.618z"/>
					<g>
						<g>
							<path style="fill:#966544;" d="M446.468,118.891c2.374-1.253,5.354-1.196,7.479,0.504c0.597,0.475,1.446-0.364,0.845-0.846         c-2.567-2.051-6.033-2.217-8.926-0.689C445.185,118.219,445.789,119.248,446.468,118.891L446.468,118.891z"/>
						</g>
						<g>
							<path style="fill:#966544;" d="M418.022,118.891c-2.375-1.253-5.355-1.196-7.48,0.504c-0.595,0.475-1.444-0.364-0.845-0.846         c2.567-2.051,6.033-2.217,8.927-0.689C419.304,118.219,418.701,119.248,418.022,118.891L418.022,118.891z"/>
						</g>
					</g>
				</g>
				<path style="fill:#EB82A0;" d="M458.512,161.54c0,0-4.349-1.962-10.64-2.438c0,0-2.251,5.052-15.434,5.144      c-13.183-0.092-15.434-5.144-15.434-5.144c-6.291,0.477-10.64,2.438-10.64,2.438c1.062,7.791-5.812,11.793-5.812,11.793h31.526      h0.717h31.526C464.323,173.333,457.45,169.331,458.512,161.54z"/>
				<path style="fill:#966544;" d="M400.549,122.688c0,0,1.593-9.22,3.27-10.715c0,0,11.125-2.61,18.551-1.543      c0,0,1.532-6.979,1.286-11.478c0,0,3.761,5.173,4.015,11.445c0,0,14.701,0.453,20.69-0.188c0,0,1.299-8.052-0.653-10.576      c0,0,4.983,6.499,4.995,10.764c0,0,6.931,1.148,8.367,2.855c1.439,1.708,2.962,10.226,2.962,10.226s1.464-6.635,5.258-5.136      c0,0,2.852-8.377-5.054-22.464c-7.904-14.087-18.455-18.283-30.836-15.329c0,0-10.257-2.86-19.599,2.262      c-9.344,5.123-12.618,10.578-15.492,17.094c-2.875,6.517-4.124,18.935-2.508,18.546      C398.892,117.707,400.549,122.688,400.549,122.688z"/>
			</g>
			</svg>