<?xml version='1.0' encoding='UTF-8'?>
<svg xmlns="http://www.w3.org/2000/svg" xmlns:xlink="http://www.w3.org/1999/xlink" version="1.1" x="0px" y="0px" viewBox="370 320 140 110" style="enable-background:new 0 0 500 500;" xml:space="preserve"><g>
				<g>
					<path style="fill:#0B0B0B;" d="M419.683,398.461c-1.097,0-2.142,0.214-3.104,0.591c-1.48-2.008-3.739-3.401-6.335-3.732       c0.568-0.957,0.9-2.07,0.9-3.264c0-3.537-2.867-6.404-6.404-6.404c-0.819,0-1.6,0.159-2.319,0.439       c0.108-0.456,0.171-0.929,0.171-1.418c0-3.401-2.758-6.159-6.159-6.159c-3.401,0-6.159,2.758-6.159,6.159       c0,1.616,0.628,3.083,1.646,4.182c-2.271,1.223-3.813,3.621-3.813,6.38c0,3.29,2.195,6.063,5.2,6.945       c-0.958,1.387-1.522,3.065-1.522,4.878c0,4.747,3.849,8.596,8.597,8.596c2.195,0,4.192-0.83,5.712-2.184       c0.93,0.309,1.921,0.483,2.955,0.483c1.599,0,3.104-0.403,4.42-1.109c1.558,1.655,3.762,2.695,6.215,2.695       c4.716,0,8.539-3.822,8.539-8.538S424.398,398.461,419.683,398.461z"/>
					<path style="fill:#0B0B0B;" d="M434.424,407c0,4.716,3.823,8.538,8.539,8.538c2.453,0,4.657-1.04,6.215-2.695       c1.316,0.706,2.821,1.109,4.42,1.109c1.034,0,2.025-0.174,2.955-0.483c1.52,1.354,3.517,2.184,5.712,2.184       c4.748,0,8.597-3.849,8.597-8.596c0-1.813-0.563-3.491-1.522-4.878c3.005-0.883,5.2-3.655,5.2-6.945       c0-2.759-1.543-5.157-3.813-6.38c1.018-1.099,1.646-2.565,1.646-4.182c0-3.401-2.758-6.159-6.159-6.159       c-3.401,0-6.159,2.758-6.159,6.159c0,0.489,0.063,0.962,0.171,1.418c-0.72-0.28-1.5-0.439-2.319-0.439       c-3.537,0-6.404,2.867-6.404,6.404c0,1.193,0.332,2.307,0.9,3.264c-2.596,0.331-4.854,1.725-6.335,3.732       c-0.963-0.377-2.008-0.591-3.104-0.591C438.247,398.461,434.424,402.284,434.424,407z"/>
				</g>
				<g>
					<g>
						<rect x="423.713" y="401.853" style="fill:#BF8158;" width="16.419" height="16.713"/>
						<g>
							<g>
								<g>
									<g>
										<g>
											<path style="fill:#BF8158;" d="M405.5,376.195c0.022,3.832-3.066,6.956-6.898,6.978c-3.834,0.025-6.958-3.063-6.98-6.896             c-0.023-3.832,3.066-6.959,6.898-6.979C402.352,369.275,405.477,372.365,405.5,376.195z"/>
											<path style="fill:#AA6944;" d="M402.591,376.211c0.015,2.228-1.781,4.043-4.006,4.057             c-2.225,0.012-4.041-1.781-4.055-4.008c-0.014-2.228,1.781-4.041,4.006-4.053             C400.765,372.191,402.577,373.986,402.591,376.211z"/>
										</g>
									</g>
									<g>
										<g>
											<path style="fill:#BF8158;" d="M472.225,375.803c0.023,3.832-3.066,6.957-6.899,6.979             c-3.832,0.025-6.958-3.065-6.98-6.897c-0.023-3.833,3.066-6.957,6.898-6.979             C469.076,368.882,472.199,371.971,472.225,375.803z"/>
											<path style="fill:#AA6944;" d="M469.313,375.82c0.016,2.227-1.78,4.041-4.005,4.055c-2.225,0.012-4.041-1.781-4.055-4.01             c-0.014-2.225,1.779-4.04,4.01-4.054C467.487,371.8,469.3,373.593,469.313,375.82z"/>
										</g>
									</g>
								</g>
								<path style="fill:#BF8158;" d="M465.124,378.276c0.09,14.836-11.978,27.045-26.814,27.132l-12.773,0.072          c-14.836,0.09-27.045-11.977-27.135-26.811l-0.066-11.609c-0.088-14.838,11.978-27.047,26.813-27.134l12.776-0.076          c14.836-0.087,27.048,11.98,27.134,26.815L465.124,378.276z"/>
								<path style="fill:#AA6944;" d="M435.642,385.627c0.007,1.292-1.648,2.35-3.695,2.364c-2.049,0.012-3.717-1.026-3.725-2.321          c-0.008-1.291,1.648-2.348,3.697-2.359C433.965,383.297,435.632,384.337,435.642,385.627z"/>
								<g>
									<path style="fill:#352215;" d="M452.332,378.514c0,1.895-1.124,3.444-2.497,3.444c-1.375,0-2.498-1.55-2.498-3.444           c0-1.895,1.123-3.443,2.498-3.443C451.208,375.07,452.332,376.619,452.332,378.514z"/>
									<path style="fill:#352215;" d="M416.14,378.514c0,1.895-1.124,3.444-2.498,3.444c-1.373,0-2.498-1.55-2.498-3.444           c0-1.895,1.125-3.443,2.498-3.443C415.016,375.07,416.14,376.619,416.14,378.514z"/>
								</g>
								<g>
									<g>
										<path style="fill:#A9703B;" d="M423.449,393.169c2.501,5.792,14.87,5.856,17.108-0.183            c0.345-0.928-1.135-1.322-1.475-0.406c-1.8,4.853-12.375,4.303-14.313-0.184            C424.378,391.494,423.06,392.273,423.449,393.169L423.449,393.169z"/>
									</g>
								</g>
							</g>
						</g>
					</g>
					<path style="fill:#BF8158;" d="M440.132,410.209c-1.431,2.359-5.026,7.435-8.55,7.356c-3.297-0.073-6.53-5.149-7.869-7.356       c0,0-26.091-0.604-32.091,14.716h40.117h0.184h40.118C466.04,409.605,440.132,410.209,440.132,410.209z"/>
					<g>
						<g>
							<path style="fill:#350304;" d="M445.952,370.482c2.374-1.254,5.354-1.197,7.479,0.504c0.597,0.475,1.446-0.365,0.845-0.846         c-2.567-2.051-6.033-2.217-8.926-0.689C444.67,369.81,445.273,370.84,445.952,370.482L445.952,370.482z"/>
						</g>
						<g>
							<path style="fill:#350304;" d="M417.507,370.482c-2.375-1.254-5.355-1.197-7.48,0.504c-0.595,0.475-1.444-0.365-0.845-0.846         c2.567-2.051,6.033-2.217,8.927-0.689C418.788,369.81,418.185,370.84,417.507,370.482L417.507,370.482z"/>
						</g>
					</g>
				</g>
				<path style="fill:#1A9BDC;" d="M457.646,413.132c0,0-4.349-1.962-10.64-2.438c0,0-2.251,5.052-15.434,5.144      c-13.183-0.092-15.434-5.144-15.434-5.144c-6.291,0.477-10.64,2.438-10.64,2.438c1.061,7.79-5.812,11.793-5.812,11.793h31.526      h0.717h31.526C463.458,424.925,456.585,420.922,457.646,413.132z"/>
				<path style="fill:#0B0B0B;" d="M471.823,357.295c2.914-1.11,4.949-3.603,4.949-6.507c0-3.935-3.732-7.125-8.334-7.125      c-0.564,0-1.116,0.05-1.649,0.142c0.105-0.522,0.172-1.057,0.172-1.604c0-5.174-4.904-9.366-10.954-9.366      c-0.545,0-1.077,0.045-1.602,0.111c-1.184-5.1-6.441-8.945-12.754-8.945c-3.638,0-6.922,1.279-9.283,3.336      c-1.988-1.622-4.676-2.624-7.643-2.624c-4.691,0-8.692,2.496-10.311,6.015c-0.815-0.201-1.675-0.314-2.566-0.314      c-4.922,0-8.935,3.285-9.23,7.429c-2.934,0.763-5.162,2.895-5.686,5.523c-3.835,0.882-6.661,3.866-6.661,7.423      c0,1.258,0.36,2.44,0.985,3.489c-1.893,1.038-3.151,2.849-3.151,4.914c0,2.065,1.258,3.877,3.151,4.915      c-1.279,1.165-2.068,2.728-2.068,4.452c0,3.597,3.411,6.513,7.618,6.513c4.207,0,7.618-2.916,7.618-6.513      c0-0.239-0.018-0.475-0.047-0.707c0.12,0.006,0.239,0.016,0.361,0.016c3.537,0,6.404-2.451,6.404-5.477      c0-0.15-0.013-0.298-0.026-0.445c3.018-0.493,5.359-2.6,5.755-5.231c0.679,0.129,1.382,0.202,2.105,0.202      c3.432,0,6.439-1.534,8.153-3.839c1.332,0.91,2.966,1.51,4.757,1.662c1.622,3.367,5.494,5.739,10.018,5.739      c0.568,0,1.122-0.049,1.667-0.121c1.484,3.556,5.446,6.105,10.116,6.105c0.128,0,0.252-0.013,0.379-0.017      c1.26,3.89,5.421,6.749,10.371,6.749c5.949,0,10.772-4.123,10.772-9.208C475.21,361.348,473.904,358.974,471.823,357.295z"/>
			</g>
			</svg>