<?xml version='1.0' encoding='UTF-8'?>
<svg xmlns="http://www.w3.org/2000/svg" xmlns:xlink="http://www.w3.org/1999/xlink" version="1.1" x="0px" y="0px" viewBox="265 200 90 105" style="enable-background:new 0 0 500 500;" xml:space="preserve"><g>
				<g>
					<path style="fill:#350304;" d="M296.061,261.976c-2.711,0-5.232,0.79-7.368,2.135c0.131-0.692,0.206-1.404,0.206-2.134       c0-6.324-5.128-11.449-11.451-11.449c-6.324,0-11.45,5.125-11.45,11.449c0,3.368,1.463,6.388,3.778,8.482       c-1.707,2-2.743,4.589-2.743,7.425c0,6.324,5.126,11.45,11.45,11.45c3.174,0,6.046-1.293,8.12-3.379       c2.478,2.317,5.797,3.746,9.458,3.746c7.656,0,13.864-6.206,13.864-13.863S303.718,261.976,296.061,261.976z"/>
					<path style="fill:#350304;" d="M324.155,261.976c2.711,0,5.232,0.79,7.368,2.135c-0.131-0.692-0.206-1.404-0.206-2.134       c0-6.324,5.128-11.449,11.451-11.449c6.324,0,11.45,5.125,11.45,11.449c0,3.368-1.463,6.388-3.778,8.482       c1.707,2,2.743,4.589,2.743,7.425c0,6.324-5.126,11.45-11.45,11.45c-3.174,0-6.046-1.293-8.12-3.379       c-2.478,2.317-5.797,3.746-9.458,3.746c-7.656,0-13.864-6.206-13.864-13.863S316.499,261.976,324.155,261.976z"/>
				</g>
				<g>
					<g>
						<g>
							<rect x="301.636" y="275.838" style="fill:#BF8158;" width="16.419" height="16.713"/>
							<g>
								<g>
									<g>
										<g>
											<g>
												<path style="fill:#BF8158;" d="M283.423,250.18c0.022,3.832-3.066,6.956-6.897,6.978              c-3.834,0.026-6.958-3.063-6.98-6.896c-0.022-3.832,3.066-6.959,6.898-6.979              C280.275,243.26,283.399,246.35,283.423,250.18z"/>
												<path style="fill:#AA6944;" d="M280.514,250.196c0.015,2.227-1.781,4.042-4.006,4.057              c-2.225,0.011-4.041-1.782-4.055-4.009c-0.014-2.227,1.781-4.041,4.006-4.052              C278.688,246.176,280.5,247.971,280.514,250.196z"/>
											</g>
										</g>
										<g>
											<g>
												<path style="fill:#BF8158;" d="M350.147,249.787c0.023,3.832-3.066,6.958-6.9,6.979              c-3.832,0.025-6.958-3.064-6.98-6.896c-0.023-3.832,3.066-6.956,6.898-6.979              C346.999,242.867,350.122,245.956,350.147,249.787z"/>
												<path style="fill:#AA6944;" d="M347.235,249.805c0.016,2.227-1.78,4.04-4.005,4.054              c-2.225,0.012-4.041-1.781-4.055-4.009c-0.014-2.225,1.779-4.04,4.01-4.054              C345.41,245.785,347.223,247.578,347.235,249.805z"/>
											</g>
										</g>
									</g>
									<path style="fill:#BF8158;" d="M343.047,252.262c0.09,14.836-11.978,27.045-26.815,27.132l-12.773,0.072           c-14.836,0.09-27.045-11.977-27.135-26.811l-0.066-11.609c-0.088-14.837,11.979-27.046,26.813-27.133l12.776-0.076           c14.836-0.086,27.048,11.979,27.134,26.816L343.047,252.262z"/>
									<path style="fill:#AA6944;" d="M313.564,259.611c0.007,1.293-1.648,2.352-3.695,2.365           c-2.049,0.012-3.717-1.027-3.725-2.321c-0.008-1.292,1.648-2.349,3.697-2.359           C311.888,257.281,313.555,258.322,313.564,259.611z"/>
									<path style="fill:#FFFFFF;" d="M309.853,266.316h-9.184c0,0,0.813,6.26,9.184,6.26c8.374,0,9.186-6.26,9.186-6.26H309.853z           "/>
									<g>
										<path style="fill:#352215;" d="M330.255,252.498c0,1.895-1.124,3.445-2.497,3.445c-1.375,0-2.498-1.551-2.498-3.445            c0-1.893,1.123-3.443,2.498-3.443C329.131,249.055,330.255,250.605,330.255,252.498z"/>
										<path style="fill:#352215;" d="M294.063,252.498c0,1.895-1.124,3.445-2.498,3.445c-1.373,0-2.498-1.551-2.498-3.445            c0-1.893,1.125-3.443,2.498-3.443C292.939,249.055,294.063,250.605,294.063,252.498z"/>
									</g>
								</g>
							</g>
						</g>
						<path style="fill:#FCB316;" d="M318.055,284.194c-1.431,2.358-5.026,7.435-8.55,7.357c-3.297-0.073-6.53-5.149-7.869-7.357        c0,0-26.091-0.604-32.091,14.716h40.117h0.184h40.118C343.963,283.59,318.055,284.194,318.055,284.194z"/>
						<g>
							<g>
								<path style="fill:#350304;" d="M323.875,244.467c2.374-1.253,5.354-1.196,7.479,0.504c0.597,0.475,1.446-0.364,0.845-0.846          c-2.567-2.051-6.033-2.217-8.926-0.689C322.593,243.795,323.196,244.824,323.875,244.467L323.875,244.467z"/>
							</g>
							<g>
								<path style="fill:#350304;" d="M295.43,244.467c-2.375-1.253-5.355-1.196-7.48,0.504c-0.595,0.475-1.444-0.364-0.845-0.846          c2.567-2.051,6.033-2.217,8.927-0.689C296.711,243.795,296.108,244.824,295.43,244.467L295.43,244.467z"/>
							</g>
						</g>
					</g>
					<path style="fill:#350304;" d="M344.674,230.369c0.763-1.533,1.202-3.255,1.202-5.085c0-6.324-5.128-11.449-11.451-11.449       c-1.858,0-3.606,0.452-5.158,1.237c-1.883-3.745-5.75-6.32-10.228-6.32c-2.603,0-4.994,0.878-6.917,2.34       c-2.721-4.664-7.765-7.807-13.554-7.807c-7.756,0-14.181,5.63-15.449,13.024c-6.183,0.163-11.146,5.213-11.146,11.434       c0,2.459,0.782,4.731,2.1,6.596c-2.335,0.952-3.981,3.242-3.981,5.919c0,3.53,2.861,6.392,6.392,6.392s6.393-2.862,6.393-6.392       c0-0.375-0.039-0.74-0.101-1.097c0.216,0.012,0.429,0.033,0.647,0.033c4.138,0,7.753-2.202,9.765-5.492       c1.681,0.614,3.487,0.967,5.381,0.967c5.115,0,9.646-2.458,12.511-6.247c2.061,1.996,4.864,3.229,7.96,3.229       c1.858,0,3.607-0.453,5.159-1.238c1.882,3.745,5.749,6.321,10.227,6.321c0.008,0,0.015-0.001,0.022-0.001       c-0.009,0.148-0.022,0.294-0.022,0.444c0,4.079,3.307,7.385,7.385,7.385c4.079,0,7.386-3.306,7.386-7.385       C349.195,234.114,347.33,231.487,344.674,230.369z"/>
				</g>
			</g>
			</svg>