<?xml version="1.0" encoding="UTF-8"?>
<svg xmlns="http://www.w3.org/2000/svg" version="1.1" viewBox="200 0 1000 1400">
  <g>
    <g id="Objects">
      <g>
        <path d="M1100.738,540.844c-88.953,183.896-224.185,411.993-300.119,536.753,0,.007-.007.014-.007.021-17.474,28.699-31.802,51.929-41.704,67.89-9.332,15.039-26.137,23.808-43.815,22.787-186.148-10.683-385.497-38.509-477.906-52.478-28.389-4.293-46.813-32.231-39.579-60.015,34.807-133.697,64.843-213.551,72.866-233.995,1.337-3.413,3.061-6.657,5.137-9.684l337.959-492.685c8.733-12.731,23.019-20.556,38.453-20.993,124.668-3.498,246.536,4.884,305.425,9.902,4.673.394,8.952.774,12.801,1.119,15.173,1.372,28.79,9.817,36.806,22.773,33.681,54.414,73.696,128.729,92.873,164.944,7.199,13.596,7.509,29.811.809,43.66Z" style="fill: #e59507;"/>
        <path d="M1100.738,540.844c-88.953,183.896-224.185,411.993-300.119,536.753,135.963-295.967,244.46-400.522,212.109-548.717-10.964-50.247-39.037-94.696-67.834-137.308,0,0,10.676-32.063,12.555-83.225,4.673.394,8.952.774,12.801,1.119,15.173,1.372,28.79,9.817,36.806,22.773,33.681,54.414,73.696,128.729,92.873,164.944,7.199,13.596,7.509,29.811.809,43.66Z" style="fill: #d88809;"/>
        <path d="M979.447,341.41l-127.92,194.072-86.828,131.727-48.143,73.028-20.57,31.211-48.643,73.795-.415,2.196-3.744,19.832-143.029-5.883-220.828-9.078-8.853-30.5c27.953-43.836,65.934-100.488,106.8-160.278,26.82-39.241,54.878-79.826,82.169-119.038,17.481-25.11,34.638-49.649,50.951-72.908,7.256-10.338,14.335-20.423,21.204-30.191,18.41-26.165,35.279-50.057,49.713-70.466,30.866-43.604,50.649-71.31,50.649-71.31,25.968-.577,50.177-.887,72.725-.978,149.722-.612,226.317,8.494,262.173,15.173,13.575,2.526,20.19,18.065,12.59,29.599Z" style="fill: #f2b301;"/>
        <path d="M979.447,341.41l-332.104,503.832-4.159,22.027-27.932-1.147,2.526-13.399,332.104-503.832c7.6-11.527.992-27.066-12.583-29.599-39.522-7.361-128.525-17.671-310.344-14.659,3.258-4.574,5.004-7.016,5.004-7.016,198.449-4.391,293.644,6.51,334.898,14.195,13.575,2.526,20.19,18.065,12.59,29.599Z" style="fill: #ffc303;"/>
        <path d="M630.629,820.934l-163.937-13.976-77.306-125.731c1.724-2.519,3.491-5.109,5.32-7.783,23.111-33.822,48.924-71.233,76.8-111.325l159.124,258.816Z" style="fill: #ffc303;"/>
        <path d="M704.353,720.39l-5.426,8.227-15.145,22.977-161.34-262.419c1.745-2.484,3.491-4.975,5.236-7.467,5.426-7.727,10.753-15.313,15.961-22.731l160.714,261.413Z" style="fill: #ffc303;"/>
        <path d="M839.325,515.629l-86.828,131.727-159.159-258.872c1.731-2.449,3.469-4.905,5.208-7.368,16.324-23.056,29.615-41.766,38.474-54.214,3.765-5.29,9.818-8.478,16.309-8.591,17.58-.307,34.81-.495,51.44-.56,4.349-.021,8.649-.028,12.879-.028l121.678,197.907Z" style="fill: #ffc303;"/>
        <path d="M711.127,1168.068h0c12.212,0,21.277-11.314,18.616-23.233-13.474-60.361-51.105-222.775-82.403-299.597,0,0-259.767-23.335-358.661-23.707-10.976-.041-20.791,6.811-24.519,17.134-11.211,31.043-36.113,104.76-64.614,219.547-7.052,28.401,12.419,56.551,41.478,60.009,119.651,14.238,400.892,47.104,470.103,49.846Z" style="fill: #f2b301;"/>
        <path d="M719.669,1111.374c-3.195,0-6.088-2.19-6.847-5.437-32.05-137.042-59.159-223.328-70.479-254.005l-322.89-23.37c-3.877-.281-6.792-3.651-6.511-7.527.28-3.877,3.655-6.772,7.527-6.512l327.378,23.695c2.715.197,5.072,1.94,6.055,4.479,10.316,26.643,38.771,115.277,72.625,260.035.885,3.784-1.466,7.57-5.25,8.455-.539.126-1.078.187-1.608.187Z" style="fill: #7c4b29;"/>
        <path d="M668.61,1143.932c-37.735-3.244-90.171-8.621-146.534-14.743l-102.852-280.59c50.226,3.272,103.092,7.368,145.077,10.781l104.309,284.552Z" style="fill: #ffc303;"/>
        <path d="M374.881,845.889l90.896,277.092c-39.438-4.412-79.073-8.945-115.47-13.174l-76.722-233.883c4.089-12.231,7.6-22.252,10.43-30.085.69-1.914,2.526-3.195,4.567-3.195,22.069.084,52.478,1.344,86.3,3.244Z" style="fill: #ffc303;"/>
        <path d="M689.736,788.672c-1.341,0-2.697-.383-3.896-1.183-3.234-2.156-4.108-6.525-1.952-9.759l281.856-422.786c2.155-3.233,6.525-4.108,9.759-1.952,3.234,2.156,4.108,6.525,1.952,9.759l-281.856,422.785c-1.356,2.034-3.588,3.135-5.862,3.135Z" style="fill: #7c4b29;"/>
        <path d="M717.872,1175.416c-1.058,0-2.117-.03-3.182-.091-183.674-10.546-378.668-37.45-478.554-52.549-15.5-2.342-29.34-11.192-37.972-24.28-8.633-13.089-11.319-29.298-7.369-44.471,34.749-133.467,64.755-213.454,73.125-234.79,1.528-3.896,3.508-7.628,5.883-11.091l337.959-492.684c9.99-14.564,26.463-23.554,44.064-24.048,135.512-3.8,268.266,6.458,319.051,11.045,17.257,1.559,33.019,11.308,42.161,26.078,33.369,53.913,72.656,126.741,93.105,165.354,8.222,15.526,8.569,34.226.93,50.02-109.535,226.453-289.605,520.561-342.186,605.307-10.15,16.359-27.952,26.2-47.018,26.2ZM712.879,304.659c-19.979,0-40.282.252-60.656.823-13.118.368-25.399,7.075-32.852,17.94h0l-337.96,492.683c-1.772,2.584-3.248,5.366-4.387,8.271-8.297,21.152-38.055,100.482-72.606,233.196-2.947,11.318-.943,23.41,5.497,33.175,6.439,9.764,16.764,16.365,28.326,18.113,99.645,15.062,294.15,41.899,477.257,52.412,15.106.876,29.44-6.597,37.432-19.477,52.489-84.6,232.238-378.179,341.477-604.016,5.696-11.776,5.435-25.721-.699-37.304-20.365-38.457-59.481-110.971-92.635-164.533-6.825-11.027-18.585-18.305-31.458-19.468-42.896-3.875-144.563-11.816-256.734-11.816ZM613.567,319.442h.01-.01Z" style="fill: #7c4b29;"/>
        <path d="M1042.336,488.662c-36.806,0-54.231,34.42-54.231,66.673,0-32.253-17.432-66.673-54.238-66.673,36.806,0,54.238-34.42,54.238-66.673,0,32.253,17.425,66.673,54.231,66.673Z" style="fill: #fff;"/>
        <path d="M593.338,503.569c-36.806,0-54.231,34.42-54.231,66.673,0-32.253-17.432-66.673-54.238-66.673,36.806,0,54.238-34.42,54.238-66.673,0,32.253,17.425,66.673,54.231,66.673Z" style="fill: #fff;"/>
        <path d="M306.938,1011.578c-22.635,0-33.351,21.168-33.351,41.003,0-19.835-10.72-41.003-33.356-41.003,22.635,0,33.356-21.168,33.356-41.003,0,19.835,10.716,41.003,33.351,41.003Z" style="fill: #fff;"/>
      </g>
    </g>
      <text x="0" y="700"
          font-size="190"
          fill="#000000"
          stroke="yellow"
          stroke-width="12"
          font-weight="bold"
          text-anchor="middle"
          dominant-baseline="middle">
          21
      </text>
  </g>
</svg>