<svg width="67" height="64" viewBox="0 0 67 64" fill="none" xmlns="http://www.w3.org/2000/svg">
<path d="M57.3539 20.3116C57.5177 20.7105 57.6764 21.1124 57.824 21.5181C58.1228 22.3278 58.3876 23.1502 58.6204 23.9815C58.8547 24.8128 59.0527 25.6537 59.2211 26.5005C59.2656 26.7119 59.3004 26.9247 59.3412 27.1368L59.4398 27.7767C59.5036 28.2031 59.5815 28.6288 59.6178 29.0589L59.686 29.6743L59.7209 29.9821C59.7335 30.0844 59.7357 30.1875 59.7439 30.2906C59.7706 30.7029 59.7972 31.1152 59.8239 31.526C59.8314 31.9042 59.8143 32.289 59.8032 32.6717C59.8024 32.8504 59.775 33.0669 59.755 33.2812C59.735 33.4963 59.7194 33.7091 59.7224 33.8819C59.7186 33.5741 59.7157 33.2634 59.712 32.9512C59.7023 32.639 59.6808 32.3254 59.6682 32.0102C59.6615 31.853 59.6549 31.6958 59.6475 31.5378C59.64 31.3799 59.6208 31.222 59.6082 31.064C59.5815 30.7488 59.554 30.4322 59.5266 30.1156C59.4903 29.7997 59.4443 29.4845 59.405 29.1694L59.3442 28.697C59.3219 28.5398 59.2893 28.3841 59.2626 28.2283C59.207 27.9169 59.1514 27.6062 59.0958 27.2962C59.0349 26.9877 58.9667 26.6815 58.8948 26.3789C58.9845 26.7912 59.0683 27.2065 59.1299 27.6247L59.2292 28.2521C59.2626 28.4612 59.2989 28.671 59.316 28.8816C59.3583 29.3036 59.4094 29.7255 59.4435 30.1489L59.5088 31.4237C59.5488 33.1255 59.4243 34.837 59.1284 36.5181L59.055 36.9541C59.026 37.0987 58.9919 37.2418 58.9608 37.3857L58.7672 38.2489C58.6946 38.5343 58.61 38.8169 58.5314 39.1009L58.4106 39.5258C58.3735 39.6682 58.3186 39.8054 58.2734 39.9455C59.2292 36.6137 59.5459 33.124 59.2255 29.7092L59.121 28.7244C59.0757 28.3974 59.0194 28.0719 58.9697 27.7463L58.8926 27.2584L58.7991 26.7734L58.6968 26.2899L58.5863 25.8087C58.4543 25.257 58.2756 24.6815 58.1518 24.135C58.0183 23.5432 57.8099 22.9226 57.6104 22.3434L57.6371 22.4524C57.7254 22.8121 57.8529 23.2273 57.9397 23.5855C58.0561 24.0467 58.1621 24.5124 58.263 24.9796C58.392 25.5825 58.5092 26.1891 58.6115 26.7994L58.6849 27.2576L58.745 27.7174L58.8681 28.6377C58.8992 28.9454 58.9222 29.2539 58.9511 29.5624L58.9934 30.0244C59.0053 30.1786 59.0075 30.3336 59.0149 30.4878C59.0275 30.797 59.0409 31.1055 59.0535 31.4148C59.0557 31.724 59.049 32.0325 59.0468 32.3409C59.0223 34.2801 58.788 36.2267 58.3371 38.1287C57.887 40.03 57.2055 41.8809 56.3298 43.6273C56.424 43.4434 56.5129 43.1653 56.5767 42.9688C56.6575 42.7389 56.7421 42.5098 56.8274 42.2806C56.9401 41.9974 57.0335 41.7008 57.1307 41.4071C57.1781 41.2603 57.2256 41.1134 57.273 40.9681C57.3197 40.8228 57.3657 40.6782 57.3976 40.5313C57.7647 39.1565 58.1599 37.6163 58.3779 36.1755C58.6293 34.5159 58.7257 32.8363 58.6679 31.1649C58.6456 30.7733 58.6323 30.384 58.5989 29.9969C58.5552 29.6113 58.5122 29.2264 58.4684 28.8423C58.4158 28.4597 58.3423 28.0793 58.28 27.6981C58.2482 27.5075 58.217 27.317 58.1747 27.1271C58.1369 26.9373 58.0947 26.7475 58.0517 26.5576C57.9241 25.9955 57.7758 25.4409 57.606 24.8958C57.8047 25.6967 57.9627 26.5072 58.088 27.3229L58.24 28.5509C58.2704 28.7548 58.2778 28.961 58.2934 29.1664L58.3371 29.7826C58.4298 31.4274 58.3705 33.078 58.157 34.7094L58.0754 35.3227C58.0643 35.425 58.0442 35.5266 58.025 35.6275L57.9686 35.9315C57.8915 36.3364 57.8284 36.7443 57.7239 37.1432C57.6794 37.3308 57.6371 37.5192 57.5963 37.7097L57.5363 37.9952L57.4636 38.2785L57.3183 38.8465L57.2456 39.1298L57.2093 39.2714L57.1648 39.4101C56.6931 40.9992 56.0702 42.5476 55.2998 44.0203C55.1648 44.2732 55.0224 44.5223 54.8845 44.7737L54.6761 45.1504C54.6049 45.275 54.5256 45.3951 54.4514 45.5175L53.9976 46.2494C53.8382 46.4882 53.6721 46.7225 53.5104 46.9591L53.2657 47.3135C53.1827 47.4299 53.0922 47.5419 53.0054 47.6569L52.4819 48.3413C52.2995 48.563 52.1119 48.7803 51.9272 48.9998L51.6491 49.329C51.5542 49.4366 51.4541 49.5396 51.357 49.6449C51.1189 49.883 50.8935 50.1077 50.6836 50.3175C50.4641 50.517 50.261 50.7031 50.0748 50.8729C49.9814 50.9575 49.8924 51.0376 49.8079 51.1139C49.7233 51.1896 49.6358 51.2541 49.5572 51.3171C49.3978 51.4425 49.2569 51.5485 49.1346 51.633L49.7448 51.1036L50.3262 50.5422L50.6169 50.2612C50.7126 50.1663 50.8015 50.0647 50.8942 49.9675L51.4445 49.375C51.5386 49.2786 51.6217 49.1718 51.7085 49.0688L51.968 48.7588L52.2268 48.4488L52.3558 48.2938L52.4774 48.1322C52.7985 47.6991 53.1345 47.2779 53.4259 46.8241C53.5749 46.6002 53.7299 46.3799 53.8745 46.1537L54.292 45.4641L54.5004 45.12L54.6917 44.7656L55.0743 44.0581C55.1974 43.8201 55.3079 43.5761 55.4251 43.3359C55.5386 43.0934 55.6646 42.8576 55.7625 42.6091C55.9686 42.116 56.1896 41.6311 56.3639 41.1275C57.54 38.0079 58.1073 34.6301 58.0064 31.3065C57.9923 31.0032 57.979 30.6999 57.9649 30.3966L57.9553 30.169C57.9515 30.0933 57.9419 30.0177 57.9352 29.942L57.8922 29.4882L57.8307 28.8401C57.8032 28.6251 57.7676 28.41 57.7365 28.195C57.692 27.9154 57.6653 27.5847 57.5971 27.3147C57.5897 27.2843 57.5823 27.2517 57.5756 27.2258C57.6001 27.42 57.6238 27.6284 57.6527 27.8375C57.6824 28.0466 57.712 28.2558 57.7395 28.453L57.781 28.7697C57.7929 28.8757 57.798 28.9817 57.8069 29.0878L57.8566 29.7248C57.9604 31.2991 57.9478 32.8793 57.8003 34.4506C57.6512 36.0212 57.3731 37.5844 56.9341 39.1076C56.5708 40.3415 56.1266 41.5576 55.5927 42.736C55.0439 43.9076 54.4151 45.0429 53.7129 46.13C52.5872 47.6116 51.1872 49.2334 49.6114 50.6779C48.0408 52.1269 46.2737 53.3631 44.6319 54.2626C44.9389 54.0638 45.1836 53.9096 45.3749 53.7798C45.5618 53.6426 45.7012 53.5403 45.8087 53.4609C46.0223 53.3015 46.1053 53.234 46.175 53.1754C46.2433 53.1146 46.3048 53.0739 46.4583 52.9419C46.6133 52.8128 46.8684 52.6052 47.3378 52.2367C47.2547 52.2967 46.9611 52.5081 46.5621 52.795C46.4613 52.8655 46.3589 52.9478 46.2425 53.0205C46.1276 53.0954 46.0067 53.1732 45.8829 53.2533C45.759 53.3334 45.6315 53.4165 45.5025 53.5002C45.3734 53.584 45.2444 53.6715 45.1072 53.7472C44.8373 53.9044 44.5666 54.0616 44.3093 54.2106C44.1825 54.2885 44.0527 54.3538 43.9289 54.4168C43.8051 54.4806 43.6871 54.5414 43.5759 54.5985C43.3535 54.7134 43.1584 54.8135 43.0064 54.8921C42.8499 54.9626 42.7372 55.013 42.6816 55.0382C42.4777 55.1294 42.2508 55.228 42.0632 55.3156C41.8726 55.4097 41.6709 55.4854 41.4714 55.5655C41.0732 55.7212 40.6698 55.8999 40.2508 56.0319C39.8356 56.1713 39.427 56.327 39.0199 56.4331C38.6061 56.5487 38.1804 56.6852 37.7385 56.7749C37.2995 56.8735 36.8456 56.9922 36.3777 57.0597C36.1449 57.099 35.9083 57.139 35.6673 57.1798C35.5472 57.2035 35.4248 57.2139 35.3017 57.228C35.1786 57.2421 35.0541 57.2562 34.9287 57.2703C34.6781 57.297 34.4245 57.3289 34.1657 57.3526C33.9069 57.3659 33.6436 57.38 33.3767 57.3934C33.5598 57.3771 33.7378 57.3615 33.9106 57.3466C33.9974 57.3392 34.0819 57.3318 34.1657 57.3244C34.2495 57.317 34.3318 57.3014 34.4126 57.291C34.7359 57.2451 35.0392 57.202 35.3225 57.1613C35.3937 57.1516 35.4634 57.142 35.5331 57.1323C35.6021 57.119 35.6695 57.1056 35.737 57.093C35.8712 57.0671 36.0025 57.0426 36.1308 57.0181C36.3866 56.9692 36.6291 56.9225 36.8582 56.8787C37.3113 56.7675 37.7229 56.6666 38.1137 56.571C38.4985 56.4561 38.8626 56.347 39.2267 56.238C39.2809 56.221 39.3328 56.2047 39.384 56.1884C39.4336 56.1698 39.4826 56.1513 39.5293 56.1335C39.6235 56.0979 39.7132 56.0638 39.7992 56.0319C39.9713 55.9666 40.13 55.9073 40.2886 55.8472C40.609 55.7353 40.9145 55.5862 41.329 55.406C41.24 55.4416 41.1169 55.4913 40.9686 55.5506C40.8945 55.5803 40.8137 55.6129 40.7269 55.647C40.6409 55.6826 40.5489 55.7182 40.4503 55.7494C40.2545 55.8154 40.041 55.8873 39.8192 55.9629C39.5968 56.0363 39.3691 56.1231 39.1326 56.1832C38.8982 56.2492 38.6639 56.3159 38.4385 56.3797C38.3258 56.4116 38.216 56.4434 38.1085 56.4738C38.0002 56.4983 37.8949 56.5228 37.7948 56.5458C37.3929 56.6392 37.0644 56.7156 36.8805 56.7586C35.4908 57.0463 34.0737 57.231 32.6485 57.3029C32.2918 57.314 31.9351 57.3244 31.5784 57.3355L30.5076 57.3125C30.4187 57.3096 30.3289 57.3118 30.2399 57.3051L29.973 57.2858L29.4383 57.2473C29.2604 57.2325 29.0809 57.228 28.9037 57.2043L28.3712 57.139L27.8388 57.0745C27.6608 57.0537 27.4858 57.0152 27.3093 56.987L26.7806 56.8958L26.5159 56.8506C26.4284 56.8328 26.3416 56.8113 26.2541 56.792C25.9056 56.7119 25.5556 56.6385 25.2078 56.5547L24.1763 56.2677C22.8074 55.8539 21.4749 55.3289 20.1949 54.703L19.756 54.4828C19.6099 54.4086 19.4608 54.3404 19.3199 54.2559C19.0344 54.095 18.7482 53.9333 18.462 53.7716C18.1787 53.6048 17.905 53.4224 17.6255 53.2496C17.343 53.0805 17.0775 52.8855 16.8083 52.6971L16.4042 52.4146C16.2677 52.3234 16.1431 52.2151 16.0119 52.1165L15.6226 51.8147L15.4275 51.6642L15.3304 51.5885L15.237 51.5085C14.9878 51.2949 14.7394 51.0813 14.4902 50.8685C14.3627 50.7654 14.25 50.6468 14.1298 50.5363L13.7739 50.1996C13.6597 50.0891 13.5403 49.9853 13.4306 49.8696L13.1013 49.5256C12.9916 49.4106 12.8818 49.2964 12.7721 49.1822C12.7179 49.1244 12.6616 49.0688 12.6089 49.0102L12.4547 48.8307C12.4287 48.8011 12.2389 48.5853 11.9067 48.2071C11.8207 48.1144 11.7354 48.0039 11.6405 47.8845C11.5455 47.7651 11.4425 47.6361 11.3312 47.4967C11.2215 47.3558 11.0969 47.2119 10.9775 47.0473C10.8589 46.8827 10.7335 46.7084 10.6008 46.5245C10.0647 45.7941 9.48404 44.8686 8.88487 43.7786C8.74176 43.5027 8.59419 43.218 8.44217 42.925C8.29831 42.6284 8.16335 42.317 8.01652 42.0018C7.86302 41.6896 7.74363 41.353 7.60645 41.0156C7.53897 40.8465 7.47074 40.6752 7.40178 40.5024C7.34171 40.3259 7.28165 40.148 7.2201 39.9678C6.72401 38.5306 6.31541 36.9259 6.06922 35.2055C5.82377 33.497 5.75629 31.6713 5.91127 29.7982C6.06477 27.925 6.44222 26.0052 7.04435 24.1187C7.66132 22.2366 8.50298 20.3917 9.53521 18.6579C9.65682 18.4369 9.79846 18.2278 9.9349 18.015L10.3442 17.3788L10.7825 16.7625C10.9301 16.5586 11.0687 16.348 11.2282 16.1537C11.5411 15.7607 11.8377 15.3551 12.1729 14.9836C12.3353 14.7937 12.4984 14.6046 12.6601 14.4155C12.8306 14.2346 13.0012 14.0529 13.1718 13.8727C13.848 13.1453 14.5762 12.4831 15.3082 11.8453C15.4928 11.6881 15.6849 11.5413 15.8717 11.3885L16.1528 11.1624C16.247 11.0875 16.3382 11.0096 16.436 10.9414C16.6296 10.8005 16.8216 10.6603 17.0137 10.5209C17.1094 10.4512 17.205 10.3808 17.2999 10.3111C17.3956 10.2414 17.4965 10.1806 17.5936 10.1153C19.1523 9.06379 20.7645 8.21917 22.3506 7.58218C23.9368 6.94371 25.4963 6.51287 26.9534 6.24665C27.1358 6.21329 27.316 6.18066 27.4947 6.14803C27.583 6.12949 27.6734 6.11763 27.7639 6.10724C27.8536 6.09612 27.9434 6.08426 28.0324 6.07313C28.2103 6.05015 28.3861 6.02716 28.5603 6.00491C28.7339 5.98192 28.9059 5.95745 29.0765 5.94855C29.4168 5.92112 29.7483 5.89516 30.0709 5.86921C30.3934 5.85364 30.7079 5.84919 31.0112 5.83806C31.1632 5.8351 31.313 5.82397 31.4598 5.82768C31.6066 5.83065 31.7512 5.83361 31.8936 5.83584C32.1776 5.84325 32.4512 5.84029 32.7137 5.85438C32.9762 5.87217 33.2276 5.88849 33.4679 5.9048C33.588 5.91222 33.7052 5.92037 33.8201 5.92779C33.9343 5.93891 34.0456 5.95374 34.1538 5.96561C34.3704 5.99008 34.575 6.01381 34.7678 6.03606C34.8642 6.04718 34.9577 6.05756 35.0481 6.0672C35.1379 6.08203 35.2246 6.09612 35.3077 6.11021C35.6421 6.16434 35.9261 6.21106 36.1567 6.24814C36.3866 6.28744 36.5601 6.33193 36.6788 6.35492C36.7967 6.37939 36.8575 6.39274 36.8575 6.39274C37.0303 6.42537 37.2023 6.458 37.3729 6.49062C37.5434 6.52399 37.7103 6.567 37.8779 6.6026C38.0455 6.63819 38.2123 6.67304 38.3777 6.7079C38.4607 6.72495 38.543 6.74127 38.6253 6.75758C38.7069 6.7776 38.7877 6.79762 38.8686 6.8169C39.1912 6.89551 39.5115 6.96447 39.8259 7.03344C40.1359 7.11426 40.4421 7.18916 40.7439 7.25738C40.8196 7.27444 40.8945 7.29075 40.9694 7.30781C41.0428 7.32709 41.1162 7.34711 41.1889 7.36639C41.3357 7.40347 41.4803 7.4398 41.6227 7.47614C41.9097 7.54585 42.1929 7.60591 42.4606 7.68081C42.7313 7.75051 42.996 7.81354 43.2541 7.8699C43.5114 7.92774 43.7546 7.99522 43.9956 8.04639C44.2344 8.10126 44.4695 8.14205 44.6905 8.18654C44.91 8.234 45.1213 8.2733 45.3245 8.30519C45.5277 8.33633 45.722 8.36006 45.9059 8.3749C46.0875 8.39417 46.2573 8.40826 46.4175 8.41049C47.0575 8.42235 47.5298 8.28517 47.7516 7.96334C47.98 7.63186 47.9199 7.13429 47.5877 6.50026C47.5039 6.3438 47.4075 6.17102 47.2866 6.00491C47.1657 5.83732 47.0286 5.66306 46.8751 5.48212C46.7208 5.30192 46.5525 5.11135 46.3641 4.92299C46.1728 4.73983 45.9659 4.55148 45.7435 4.35868C45.3045 3.96269 44.778 3.60082 44.2062 3.21076C43.9163 3.02389 43.6078 2.84815 43.2882 2.66424C43.128 2.57452 42.9664 2.47886 42.798 2.39432C42.6282 2.31201 42.4554 2.22821 42.2812 2.14368C40.8819 1.47406 39.2512 0.901586 37.4826 0.571598L37.4544 0.565665C37.4322 0.556025 37.1089 0.500409 36.5216 0.405491C36.2279 0.360257 35.8698 0.291293 35.4456 0.249766C35.2343 0.225295 35.0066 0.199341 34.7649 0.171904C34.644 0.158556 34.5194 0.144467 34.3911 0.129636C34.2628 0.117771 34.1301 0.111097 33.9944 0.101457C33.4501 0.0673458 32.8494 0.0139544 32.1939 0.0139544C32.03 0.0109882 31.8632 0.00802203 31.6926 0.00505584C31.5221 0.00357275 31.3486 -0.00458427 31.1721 0.00357275C30.8191 0.0146959 30.4535 0.0258192 30.0761 0.0376839C28.5648 0.117029 26.8815 0.291293 25.0402 0.679863C23.2086 1.06621 21.2657 1.67428 19.3081 2.53151C17.3519 3.39022 15.3853 4.5055 13.5055 5.86773C13.2711 6.03902 13.0361 6.21106 12.7995 6.38384C12.5711 6.567 12.342 6.75017 12.1121 6.93481C11.9971 7.0275 11.8822 7.1202 11.7673 7.21289L11.5945 7.3523L11.4276 7.49913C11.2052 7.69564 10.982 7.89289 10.7588 8.09014C10.6475 8.18951 10.5333 8.28665 10.4243 8.38973L10.101 8.70266C9.88522 8.91177 9.66943 9.12163 9.4529 9.33149C9.23859 9.54431 9.03615 9.769 8.82629 9.9885L8.5141 10.3207C8.40954 10.4312 8.30499 10.5417 8.20784 10.6589C6.59275 12.4853 5.14822 14.5179 3.94024 16.6943C2.74635 18.8789 1.79569 21.2066 1.12829 23.5885L1.06304 23.8109L1.00742 24.0356L0.897673 24.485C0.825743 24.7846 0.749363 25.0834 0.683366 25.383C0.625525 25.6848 0.567684 25.9866 0.509844 26.287C0.452745 26.588 0.391938 26.8869 0.355602 27.1902C0.274032 27.7945 0.176148 28.3937 0.136104 28.9958C0.11015 29.2962 0.0849375 29.5957 0.0589834 29.8946C0.0411862 30.1934 0.0352539 30.493 0.0241307 30.7904C0.0189398 30.9394 0.0144905 31.0877 0.00929972 31.236C0.00559198 31.3844 -0.00404813 31.5319 0.00188425 31.6802C0.00707508 31.9761 0.0122659 32.2705 0.0174567 32.5634C0.0159736 33.1507 0.0738143 33.7299 0.112375 34.3046C0.122756 34.4484 0.13388 34.5915 0.144261 34.7347C0.162058 34.877 0.179114 35.0187 0.196911 35.1603C0.232505 35.4436 0.2681 35.7246 0.303694 36.0049C0.322974 36.1443 0.336322 36.2852 0.360793 36.4224C0.385264 36.5596 0.409735 36.6968 0.434206 36.8332C0.483148 37.1061 0.53209 37.3775 0.581032 37.6467C1.00149 39.7987 1.62884 41.8016 2.37113 43.5976C3.11267 45.3959 3.96768 46.9865 4.82416 48.3576C5.04514 48.6965 5.25945 49.0258 5.46708 49.3446C5.68362 49.6576 5.90386 49.9542 6.11149 50.2434C6.21605 50.3872 6.31912 50.5289 6.42071 50.6675C6.5275 50.8018 6.6328 50.9338 6.73587 51.0628C6.94276 51.3208 7.14076 51.5685 7.33059 51.8058C7.7288 52.2641 8.0929 52.6794 8.42437 53.0442C8.76771 53.3979 9.06952 53.7086 9.32609 53.9734C9.45216 54.1083 9.58044 54.2181 9.68945 54.3234C9.79994 54.4272 9.89857 54.5191 9.98459 54.6C10.1566 54.7609 10.2782 54.8751 10.3457 54.9381C12.9775 57.3229 16.026 59.2843 19.3251 60.6621C20.9751 61.3495 22.6821 61.8975 24.4195 62.2994C26.157 62.6999 27.9248 62.9646 29.6964 63.0566C33.8921 63.2998 38.1611 62.6969 42.1269 61.2531C40.9241 61.6217 40.4444 61.7107 40.1856 61.7685C39.926 61.8211 39.8793 61.8122 39.5152 61.8575C39.8815 61.7522 40.2427 61.6484 40.5986 61.546C40.7758 61.4926 40.9545 61.4481 41.1273 61.3888C41.3001 61.3302 41.4721 61.2717 41.6434 61.2131C41.814 61.1545 41.9846 61.0966 42.1536 61.0388C42.322 60.9787 42.4925 60.9283 42.6557 60.8594C42.9849 60.7281 43.3112 60.5983 43.6352 60.4686C43.7687 60.4137 43.9237 60.3618 44.0824 60.2876C44.2426 60.2157 44.4139 60.1393 44.5911 60.06C44.7683 59.9806 44.95 59.8991 45.1324 59.8167C45.2229 59.7752 45.3148 59.7359 45.4038 59.6936C45.4921 59.6492 45.5796 59.6047 45.6656 59.5616C46.0186 59.3815 46.3745 59.2005 46.7305 59.0188C47.0782 58.8231 47.4238 58.6221 47.7694 58.4241C48.1097 58.2365 48.4301 58.0177 48.7586 57.8094L49.2487 57.4927L49.3711 57.4134L49.4897 57.3289L49.7278 57.159C50.0437 56.9314 50.364 56.7082 50.6762 56.4746L51.5935 55.7479C52.7948 54.752 53.9353 53.6775 54.9787 52.5177C53.7151 53.8962 52.3225 55.1272 50.8446 56.2573C49.2962 57.4416 47.6374 58.4797 45.8977 59.354C44.2329 60.1905 42.494 60.8764 40.7113 61.4051C40.2634 61.5275 39.817 61.6587 39.3669 61.7715L38.0084 62.077C37.6643 62.1452 37.3425 62.2216 36.9939 62.2861L36.3236 62.4047L35.648 62.493C35.3907 62.5264 35.1319 62.5597 34.8716 62.5931C34.6114 62.625 34.3481 62.6376 34.0856 62.6606C33.8231 62.6806 33.5598 62.7014 33.2973 62.7214C33.0348 62.7414 32.7716 62.7407 32.5098 62.751C30.3586 62.8259 28.1799 62.6747 26.0398 62.295C23.8997 61.9161 21.8004 61.3095 19.8012 60.4975C15.6871 58.8312 11.9593 56.218 8.96422 52.9582C11.6968 55.8606 15.0012 58.2254 18.6325 59.8805C22.2616 61.5394 26.2185 62.4833 30.2006 62.6435C30.6886 62.6532 31.1765 62.6687 31.6637 62.6717L33.126 62.6279C33.7082 62.5886 34.1442 62.5523 34.581 62.5182C34.6358 62.5137 34.69 62.5093 34.7448 62.5048C34.7997 62.4982 34.8538 62.4908 34.9095 62.4833C35.02 62.4685 35.1334 62.4544 35.2506 62.4389C35.4856 62.4077 35.7385 62.3736 36.0277 62.335C36.1478 62.3187 36.2687 62.3069 36.3881 62.2861L36.7463 62.2223L37.4633 62.0918C37.9431 62.0147 38.4133 61.8879 38.8879 61.7811C39.0295 61.7477 39.1541 61.7188 39.269 61.6921C39.3847 61.6662 39.4907 61.6402 39.5953 61.6083C39.8059 61.5475 40.0158 61.4874 40.2968 61.4066C40.5771 61.325 40.718 61.2857 40.9976 61.2012C41.2586 61.113 41.3898 61.0685 41.6509 60.9795C41.8637 60.9068 42.0817 60.8319 42.3005 60.7578C42.4102 60.7222 42.5185 60.6792 42.6253 60.6362C42.7328 60.5931 42.8396 60.5509 42.9456 60.5086C43.1577 60.4241 43.3661 60.341 43.5663 60.2609C43.6664 60.2216 43.7643 60.1823 43.8599 60.1445C43.9541 60.103 44.0453 60.0629 44.1336 60.0236C47.6129 58.5606 50.8038 56.4034 53.5201 53.7724L52.823 54.3901C52.5842 54.5881 52.3403 54.7809 52.0993 54.9759C51.6239 55.3741 51.1137 55.7278 50.6154 56.0934L51.4148 55.449C51.5498 55.3437 51.6773 55.2303 51.8049 55.1161L52.189 54.775C52.7095 54.33 53.1878 53.8399 53.678 53.3631C53.1626 53.8473 52.6569 54.3404 52.1111 54.7898C51.5831 55.2592 51.0166 55.6819 50.4597 56.1142C50.1779 56.3263 49.8843 56.522 49.5965 56.726L49.1627 57.0285C49.0159 57.1264 48.8654 57.2176 48.7163 57.3125L47.8205 57.8739L46.9003 58.393C46.746 58.4775 46.5955 58.5695 46.4375 58.6473L45.9652 58.8839L45.4928 59.1197C45.3349 59.1968 45.1799 59.2799 45.0175 59.3481L44.052 59.7723L43.8102 59.8775C43.7294 59.9124 43.6464 59.9413 43.5648 59.9732L43.0724 60.1608L42.58 60.3477L42.3338 60.4411L42.0832 60.5227L41.0821 60.8475C40.9983 60.8734 40.916 60.9031 40.8314 60.9268L40.5778 60.9958L40.0699 61.133C39.731 61.2212 39.3951 61.3236 39.051 61.3903C42.7706 60.4789 46.3263 58.8646 49.4608 56.6489L50.2676 56.069L51.0463 55.452L51.4348 55.1428L51.8086 54.8158L52.5553 54.1602C53.4667 53.2941 54.3647 52.4265 55.1685 51.4662C55.0565 51.596 54.9105 51.7287 54.7918 51.8592C54.6442 52.0275 54.4841 52.1847 54.3261 52.3434L53.8426 52.8262L53.6009 53.0664C53.5186 53.145 53.4326 53.2199 53.3488 53.2963L52.6347 53.9808C52.5175 54.0972 52.3914 54.204 52.2676 54.3122L51.8938 54.637C51.4037 55.0797 50.8764 55.4765 50.3588 55.8851C50.2313 55.9889 50.0956 56.0831 49.9614 56.1787L49.5587 56.4649C49.288 56.6526 49.0263 56.852 48.7452 57.0241C48.4679 57.2006 48.1913 57.3778 47.914 57.5543C47.8443 57.598 47.776 57.6433 47.7056 57.6848L47.492 57.8072L47.0649 58.0511C46.9188 58.1342 46.772 58.218 46.6252 58.3018C46.551 58.3433 46.4783 58.387 46.4027 58.4263L46.1743 58.542C45.8688 58.6963 45.5618 58.8512 45.2555 59.0062C45.1124 59.0819 44.9633 59.1479 44.8128 59.2139C44.663 59.2806 44.5125 59.3481 44.3612 59.4156C44.2099 59.483 44.0572 59.5505 43.9044 59.618C43.828 59.6514 43.7517 59.6862 43.6745 59.7181L43.4395 59.8086C43.1295 59.9317 42.8173 60.0555 42.5007 60.1816C42.4213 60.2127 42.3412 60.2439 42.2619 60.275C42.1803 60.3025 42.0988 60.3306 42.0172 60.3588C41.8533 60.4144 41.6879 60.4708 41.5203 60.5271C40.8559 60.7681 40.1448 60.9535 39.3958 61.1701C39.8192 61.0358 40.2434 60.9009 40.6572 60.7689L40.8122 60.7192C40.8626 60.7007 40.913 60.6814 40.9634 60.6628C41.0643 60.6258 41.1637 60.5887 41.263 60.5516C41.461 60.4789 41.6546 60.407 41.8444 60.3373C42.2315 60.2038 42.6134 60.031 42.9871 59.8738C43.174 59.7945 43.3579 59.7166 43.5359 59.641C43.7153 59.5676 43.8822 59.4793 44.0461 59.4059C44.2352 59.3177 44.4257 59.2287 44.6156 59.1397C44.8054 59.0492 44.9989 58.9662 45.1828 58.8639C45.5558 58.6673 45.9288 58.4701 46.3018 58.2736C46.6652 58.06 47.0286 57.8472 47.389 57.6351C47.4787 57.581 47.5699 57.5306 47.6581 57.4742L47.9199 57.3029C48.0942 57.1894 48.2677 57.076 48.4405 56.9633C49.8101 56.0527 51.1263 55.0308 52.3514 53.9133C53.569 52.7876 54.691 51.5656 55.6935 50.2842C56.725 48.9649 57.6164 47.5857 58.3601 46.1308C59.1084 44.6788 59.7298 43.1623 60.2214 41.5658C60.1717 41.7193 60.1087 41.8646 60.0501 42.0115C59.9915 42.1583 59.9322 42.3044 59.8729 42.4512C59.752 42.7449 59.6408 43.0481 59.491 43.3574C59.3471 43.6688 59.1944 43.9988 59.0268 44.3614C58.8458 44.7174 58.6419 45.1015 58.4165 45.5316C60.0664 42.2102 61.0668 38.5877 61.3664 34.9349L61.4094 34.4581L61.4301 33.9798L61.4694 33.0247C61.4731 32.7058 61.4665 32.3877 61.465 32.0695C61.462 31.7514 61.4642 31.4333 61.439 31.1159C61.422 30.8059 61.4042 30.493 61.3864 30.1793L61.373 29.9443L61.3486 29.7099L61.2996 29.2405C61.2826 29.0841 61.2663 28.9283 61.2492 28.7726C61.2307 28.6169 61.2188 28.4612 61.1899 28.3077C61.1395 27.9999 61.0868 27.6952 61.0327 27.3941L61.1528 28.3885C61.1839 28.7207 61.2047 29.0544 61.2321 29.3874L61.2722 29.8872C61.2848 30.054 61.2848 30.2209 61.2922 30.3885L61.3271 31.391C61.33 31.7255 61.3211 32.0599 61.3189 32.3943L61.3137 32.8964C61.3093 33.0632 61.2959 33.2301 61.287 33.3977L61.2284 34.3995C61.1936 34.7324 61.158 35.0646 61.1231 35.3969C60.9459 36.8711 60.6723 38.3334 60.2489 39.7534C60.1969 39.9314 60.1554 40.1124 60.0939 40.2866L59.9189 40.8139C59.7995 41.1646 59.692 41.5198 59.5503 41.8624C59.4146 42.2072 59.2789 42.552 59.1432 42.8976C58.9904 43.2358 58.8384 43.5739 58.6857 43.9128L59.0794 42.9918C59.207 42.6833 59.3153 42.3674 59.4339 42.0552L59.6074 41.5858C59.6638 41.4286 59.7098 41.2684 59.7617 41.1097L60.0627 40.1554L60.3171 39.1884C60.3586 39.0275 60.4031 38.8666 60.4409 38.7049L60.5432 38.2162C60.61 37.8907 60.6827 37.5659 60.7427 37.2396C60.7939 36.9118 60.8451 36.5841 60.8962 36.2571C60.9155 36.1332 60.934 36.0123 60.9526 35.8922C60.9652 35.7721 60.9785 35.6534 60.9904 35.537C61.0149 35.3042 61.0379 35.0787 61.0601 34.8607C61.1135 34.4254 61.1246 34.0154 61.1454 33.6312C61.155 33.4392 61.1639 33.253 61.1728 33.0729C61.1788 32.9831 61.1802 32.8941 61.1788 32.8059C61.1788 32.7184 61.1788 32.6324 61.178 32.5471C61.1765 32.2075 61.175 31.8879 61.1736 31.5846C61.1691 31.2828 61.1439 30.9973 61.1298 30.7229C61.1128 30.4485 61.0994 30.1853 61.0786 29.9294C61.0201 29.4185 60.9644 28.9335 60.9007 28.4397C60.8154 27.9525 60.7294 27.446 60.6285 26.9047C60.5188 26.3641 60.3846 25.7901 60.2222 25.1672C60.3193 25.6099 60.4068 26.0623 60.4884 26.5124C60.5722 26.9625 60.6285 27.4134 60.6908 27.8509C60.7212 28.0704 60.7516 28.2884 60.782 28.5034C60.802 28.72 60.8213 28.9343 60.8406 29.1464C60.8769 29.5713 60.9259 29.9873 60.934 30.3974C61.0416 32.4767 60.9177 34.5745 60.5685 36.6375C61.1002 33.0328 60.9593 29.3473 60.1532 25.8339C60.0472 25.3593 59.9241 24.8884 59.7958 24.4197C59.7765 24.356 59.7023 24.0875 59.6267 23.8399C59.5488 23.5929 59.4747 23.3667 59.4673 23.3831C59.4509 23.4261 59.5147 23.6708 59.5904 23.9251C59.6601 24.181 59.7424 24.4464 59.7609 24.5317C59.9737 25.4067 60.1562 26.2899 60.2844 27.1813L60.4595 28.5205L60.5662 29.8671C60.5774 29.9791 60.5796 30.0918 60.5826 30.2045L60.5922 30.542L60.6115 31.2175C60.6226 31.4429 60.6137 31.6676 60.6092 31.8931L60.5944 32.5686C60.5944 32.9023 60.5625 33.2345 60.5403 33.5667L60.5047 34.0658L60.4869 34.3149C60.481 34.398 60.4676 34.4803 60.4587 34.5634L60.3371 35.5563C60.3267 35.6386 60.3178 35.7217 60.3052 35.804L60.2629 36.0502L60.1777 36.5433C60.4476 34.8363 60.5618 33.1092 60.5292 31.3873C60.4973 29.6647 60.2889 27.9525 59.9841 26.261C59.9552 26.1053 59.9248 25.9496 59.8922 25.7946C59.8603 25.6396 59.8291 25.4839 59.7935 25.3296C59.9292 26.1105 60.0331 26.8038 60.0924 27.4297C60.1243 27.7419 60.1539 28.037 60.1821 28.3158C60.1895 28.3855 60.1962 28.4545 60.2036 28.522C60.2096 28.5902 60.2118 28.6577 60.2155 28.7237C60.2222 28.8564 60.2288 28.9854 60.2355 29.1115C60.2489 29.3644 60.2615 29.6069 60.2741 29.8427C60.277 29.9013 60.28 29.9598 60.283 30.0177C60.283 30.0755 60.283 30.1334 60.2837 30.1912C60.2844 30.3061 60.2845 30.4203 60.2852 30.5331C60.283 30.9854 60.3008 31.4259 60.2689 31.8864C60.2971 31.5015 60.2259 31.0225 60.1992 30.6413L60.1502 29.994L60.0694 29.3495C60.0182 28.9506 59.9789 28.5494 59.9033 28.1512C59.8336 27.7523 59.7757 27.3518 59.6986 26.9536C59.3627 25.2525 58.8599 23.5951 58.2029 22.0186C58.0272 21.5907 57.8344 21.1703 57.6364 20.755C57.4465 20.3583 57.1959 19.811 56.972 19.4796C57.0291 19.613 57.0943 19.751 57.1611 19.8904C57.2308 20.032 57.2953 20.1736 57.3539 20.3116Z" fill="#199B00"/>
<path d="M66.507 6.09856C66.303 6.14009 66.0999 6.1831 65.8959 6.22833L65.5912 6.29804C65.4903 6.32325 65.3909 6.35514 65.2916 6.38406C65.0921 6.44338 64.8934 6.50567 64.6954 6.5687C64.4981 6.6347 64.2986 6.69328 64.1058 6.7704C63.913 6.84752 63.721 6.92613 63.5304 7.00696C63.3398 7.08778 63.1492 7.1701 62.9609 7.25463C62.7725 7.33991 62.5916 7.44076 62.4084 7.53568C62.2334 7.62837 62.0599 7.72255 61.8879 7.81821L61.6306 7.96281C61.5453 8.01175 61.4637 8.06737 61.3799 8.11928C61.2279 8.21642 61.0588 8.2839 60.8942 8.35805C60.7407 8.42776 60.5019 8.49153 60.3751 8.60128C60.6028 8.407 60.8416 8.21864 61.087 8.03474C61.2101 7.94279 61.3347 7.85232 61.4607 7.76185C61.5883 7.67509 61.7203 7.59426 61.8515 7.51195C62.1148 7.34733 62.3817 7.18641 62.6494 7.02698C62.9186 6.87051 63.1967 6.73184 63.4681 6.58427C61.9568 7.28726 60.5027 8.07849 59.0819 8.89938C58.8312 9.03286 58.5902 9.18043 58.3448 9.32132C58.0993 9.46296 57.8531 9.60089 57.6047 9.73733C58.9573 8.76146 60.387 7.87234 61.8908 7.08334L62.3269 6.85716C62.4729 6.78375 62.6161 6.70218 62.7666 6.63692L63.6639 6.22537C63.7936 6.16827 63.9227 6.09411 64.0591 6.04072C64.1948 5.98585 64.3335 5.93839 64.4736 5.91392C64.7762 5.86127 65.0832 5.74484 65.3791 5.65882L65.3212 5.66105C65.1321 5.67217 64.9186 5.72556 64.7347 5.75745C64.4966 5.79972 64.2586 5.84792 64.0213 5.90279C63.7173 5.97917 63.4221 6.08002 63.1255 6.18087C62.8304 6.28543 62.533 6.38702 62.2505 6.51902C61.965 6.64582 61.681 6.77634 61.3985 6.90833L61.1864 7.00696C61.1167 7.04107 61.0484 7.07814 60.9795 7.11374L60.5672 7.32879C58.8453 8.24015 57.2065 9.27831 55.5795 10.3105C55.6648 10.2549 55.7449 10.1185 55.8168 10.0436C55.9043 9.95757 55.9941 9.87378 56.086 9.79146C56.3144 9.58606 56.5665 9.39548 56.7823 9.17524C56.8468 9.10998 56.9136 9.04547 56.9825 8.98318C57.053 8.92237 57.1271 8.86453 57.202 8.80743C57.3518 8.69249 57.509 8.58274 57.6685 8.47596C57.9881 8.26165 58.3151 8.05624 58.6362 7.86789L59.1864 7.53271L59.4623 7.36512L59.6002 7.28133L59.7418 7.20272L60.8779 6.57612C61.6053 6.21202 62.2972 5.80343 63.0454 5.45342L63.4562 5.24875L63.6609 5.14345L63.8685 5.04482C62.1912 5.58022 60.5724 6.2402 59.0055 6.99064C58.6169 7.18493 58.2224 7.3718 57.8383 7.57424C57.4831 7.76778 57.1457 8.01249 56.8001 8.22754C56.614 8.34026 56.4368 8.46335 56.2566 8.58348L55.7175 8.94462C55.5388 9.06623 55.3556 9.18117 55.1806 9.30723L54.6548 9.68172L53.9281 10.1971L53.2185 10.7303C52.9834 10.909 52.7409 11.081 52.511 11.2649L51.8169 11.8122C51.2244 12.1807 50.8106 12.5196 50.5118 12.6383C52.2589 11.2701 53.957 9.79443 55.8228 8.52861C56.0052 8.40477 56.1876 8.28019 56.37 8.15561C56.5532 8.03177 56.7445 7.91683 56.9321 7.7967L57.4972 7.43854L57.7804 7.25908C57.8761 7.2005 57.974 7.14488 58.0704 7.08778L59.2361 6.40556C59.6351 6.18977 60.0333 5.97398 60.4307 5.75893C60.5746 5.67736 60.7274 5.60988 60.8771 5.53869L61.3295 5.32661L61.9754 5.01887C62.1192 4.95658 62.295 4.90393 62.427 4.82088C62.4418 4.81198 62.4589 4.80382 62.4715 4.79492C62.3647 4.81791 62.2549 4.85721 62.1467 4.90022C62.0377 4.94249 61.9301 4.98995 61.83 5.0337L61.1819 5.30733C60.9817 5.39113 60.7815 5.4764 60.5828 5.56391C60.3855 5.65363 60.1949 5.75374 60.0014 5.85014L59.4259 6.14602L59.1397 6.29581C59.0455 6.34772 58.9536 6.40259 58.8609 6.45599L57.7545 7.10781L56.68 7.79522C56.3849 7.97542 56.1053 8.17415 55.8198 8.36547C55.5358 8.55901 55.2473 8.74662 54.9655 8.94165L54.1291 9.53637L53.7101 9.83151L53.3015 10.137C52.4087 10.5708 51.4677 11.2056 50.5652 11.8863C50.342 12.0591 50.118 12.2319 49.8956 12.4039C49.7851 12.4907 49.6746 12.5767 49.5648 12.6627C49.4581 12.751 49.3513 12.8385 49.246 12.9252C48.8226 13.2723 48.4117 13.6089 48.0276 13.9234C48.1529 13.7751 48.2553 13.6594 48.3368 13.5667C48.4184 13.4732 48.4785 13.4028 48.5237 13.3472C48.6142 13.2359 48.6461 13.1863 48.672 13.1433C48.7239 13.0565 48.7529 12.9964 49.1867 12.5204C49.1036 12.5923 48.6023 13.0298 48.0973 13.4703C47.6035 13.9204 47.1066 14.3735 47.011 14.461C46.9212 14.5403 46.8204 14.6256 46.7403 14.702C46.6595 14.7813 46.5779 14.8622 46.4963 14.9422C46.1715 15.2626 45.8282 15.6015 45.5101 15.9159C45.3492 16.0783 45.1823 16.2466 45.014 16.4164C44.8456 16.5863 44.6721 16.7642 44.4927 16.9385C44.4029 17.026 44.311 17.1142 44.2183 17.2047C44.1271 17.2959 44.0337 17.3886 43.9395 17.4828C43.7496 17.6704 43.5516 17.8617 43.3433 18.0553C43.5998 17.7601 43.8275 17.4984 44.027 17.2692C44.2272 17.0393 44.423 16.8406 44.5876 16.6545C44.922 16.2852 45.1986 15.9871 45.4774 15.6905C45.7993 15.3241 45.9587 15.1395 46.2739 14.7658C46.1285 14.9118 45.7496 15.2759 45.3707 15.64C44.9962 16.0071 44.6321 16.3816 44.4912 16.5277C42.3948 18.7375 40.409 21.0815 38.5469 23.4582C37.6882 24.549 36.8436 25.6628 36.0146 26.7662C35.8099 27.0324 35.6149 27.3068 35.4139 27.5723C35.3998 27.5923 35.2804 27.7591 35.0713 28.0513C34.9675 28.1981 34.8414 28.3761 34.6954 28.583C34.5522 28.7914 34.3891 29.0294 34.2074 29.2934C34.0265 29.5574 33.8285 29.8481 33.6134 30.1618C31.9939 32.5317 30.519 35.0248 29.0121 37.4801C28.8534 37.7389 28.4782 37.7426 28.3136 37.4875C27.9643 36.9491 27.4467 36.2321 27.3659 36.0978C26.944 35.4008 26.5361 34.6948 26.1431 33.9807C25.4297 32.683 24.7735 31.3556 24.1461 30.0142C23.5202 28.7943 22.5903 27.8489 21.5618 27.2942C20.5326 26.7417 19.398 26.5875 18.3813 27.0005C17.3395 27.424 16.6224 28.3769 16.3376 29.5967C16.0477 30.8143 16.2041 32.2989 16.8782 33.7227L16.8841 33.7338C16.8871 33.7405 16.9175 33.8057 16.9754 33.9296C18.0491 36.238 19.2141 38.5086 20.5518 40.6761C21.7932 42.688 23.1851 44.7991 24.8691 46.4728C25.3363 46.937 25.8569 47.3516 26.4449 47.6526C27.7656 48.3297 29.3718 48.3845 30.7674 47.8818C33.1974 47.006 34.4781 44.6538 35.669 42.5278C36.3505 41.3102 37.032 40.0933 37.7142 38.8757C38.0538 38.2691 38.3682 37.638 38.7368 37.0492C39.029 36.5821 39.4108 36.1631 39.7193 35.6937C40.6819 34.2299 41.6689 32.7779 42.7122 31.3697C42.7404 31.3319 42.7678 31.2941 42.7968 31.2563C44.4942 28.979 46.2323 26.6995 48.0877 24.6002C49.1785 23.3484 50.3294 22.1449 51.4662 20.948C50.6534 21.5257 50.8411 21.4048 50.5259 21.4983C50.7343 21.2773 50.9434 21.0741 51.148 20.8761C51.3527 20.6766 51.5522 20.4823 51.7502 20.2895C51.9163 20.1323 52.1788 19.9091 52.4065 19.7097C52.6408 19.5042 52.8773 19.2959 53.1124 19.0897C54.0386 18.3052 54.9744 17.5206 55.9281 16.7887C55.3333 17.1951 54.7512 17.6266 54.1765 18.0701C53.5892 18.5595 52.9938 19.0371 52.4198 19.551C51.8607 20.0278 51.3223 20.5357 50.7765 21.0355C50.5059 21.2877 50.2397 21.5472 49.9734 21.8067C49.8733 21.9054 49.8044 22.0218 49.705 22.1234C49.5767 22.2517 49.4529 22.3852 49.3305 22.5201C49.048 22.8256 48.7588 23.1393 48.474 23.4478C47.3298 24.7425 46.2012 26.0959 45.1096 27.4536C43.9892 28.8522 42.8657 30.2626 41.7237 31.6693C42.6907 30.3597 43.6629 29.0546 44.6692 27.7858L45.0436 27.3068C45.169 27.1474 45.298 26.9924 45.4248 26.8344L46.1878 25.8919C46.7092 25.2764 47.2186 24.6498 47.7525 24.0499L48.1426 23.6065L48.3376 23.3848L48.5348 23.166C48.8574 22.8234 49.0161 22.6506 49.3305 22.3006C49.6012 22.0196 49.8726 21.7378 50.1433 21.4567C50.3064 21.2891 50.388 21.2054 50.5518 21.037C50.6342 20.9547 50.6757 20.9132 50.7587 20.8309C50.8381 20.7545 50.8781 20.7159 50.9575 20.6396C51.2185 20.3919 51.4936 20.1064 51.7235 19.9017C52.8625 18.9177 54.0037 17.9492 55.1836 17.0512L53.9059 17.8076C54.3182 17.4554 54.7305 17.1024 55.1457 16.7546C53.3237 18.0567 51.567 19.5065 49.8718 21.0496C50.9864 19.9514 52.1239 18.8836 53.3082 17.8884C53.7101 17.5347 54.1283 17.2069 54.5406 16.8718C54.9292 16.5477 55.3467 16.2755 55.7456 15.976C55.6908 16.0168 55.6077 16.0368 55.5469 16.0738L55.3163 16.2155L54.8432 16.4988C54.4249 16.8273 54.0067 17.1572 53.5877 17.4865C53.1769 17.8283 52.7602 18.1628 52.3523 18.5061C52.1447 18.6848 51.9319 18.868 51.719 19.0512C51.5196 19.2254 51.3097 19.3975 51.105 19.5836C50.9078 19.7727 50.7076 19.9655 50.4992 20.1664C50.2901 20.3667 50.0706 20.5728 49.8481 20.8049C50.075 20.515 50.3153 20.2376 50.534 19.987C50.7587 19.7349 50.9842 19.4605 51.1933 19.2514C51.4402 19.0111 51.6901 18.7686 51.9385 18.5261C52.0639 18.4068 52.1877 18.2837 52.3152 18.1687C52.4435 18.0545 52.5718 17.9403 52.6979 17.8276C52.9515 17.6051 53.2073 17.3805 53.4669 17.161C53.7309 16.9481 53.9949 16.7346 54.2596 16.5217C54.3923 16.4157 54.5228 16.3082 54.6563 16.2044C54.7905 16.1028 54.9248 16.0012 55.0582 15.8996C55.3244 15.6957 55.5899 15.4925 55.8524 15.2915C56.1268 15.092 56.3938 14.8889 56.6555 14.682C56.7868 14.5796 56.9143 14.4706 57.0456 14.3698C57.1768 14.2689 57.3066 14.1666 57.4356 14.0628C57.6952 13.8574 57.9466 13.6371 58.2054 13.4258C58.4649 13.2167 58.7237 13.0001 58.984 12.7747C58.7548 12.9037 58.5405 13.0246 58.2958 13.1625C58.1742 13.2322 58.0415 13.2997 57.9013 13.385C57.7604 13.4695 57.6069 13.5615 57.4356 13.6638C58.6266 12.7087 59.8501 11.7907 61.1293 10.9653C61.348 10.8118 61.5757 10.6784 61.8011 10.5397L62.4811 10.1229C62.7058 9.99242 62.9409 9.87674 63.1722 9.75142C63.2879 9.68913 63.4036 9.62684 63.5178 9.56158C63.632 9.49633 63.744 9.42885 63.8567 9.3673C63.7232 9.40734 63.5934 9.45999 63.4637 9.51264L63.0751 9.67356L62.6895 9.84115C62.5612 9.89676 62.4337 9.9546 62.3091 10.0213C62.0592 10.1504 61.8108 10.2824 61.5631 10.4144C61.44 10.4818 61.3147 10.5441 61.1938 10.6168L60.8312 10.8333C60.5635 10.9943 60.2928 11.1478 60.0229 11.302C59.7574 11.4659 59.4897 11.6253 59.2205 11.7825L58.8164 12.0168L58.4174 12.2638C58.1505 12.4269 57.882 12.5886 57.6114 12.7495L58.3084 12.2675C58.5413 12.1073 58.7704 11.939 59.0092 11.7907C59.4845 11.4881 59.951 11.1648 60.4352 10.8838C60.6161 10.7733 60.7852 10.6695 60.9439 10.5723C61.0232 10.5234 61.0996 10.4752 61.1738 10.4292C61.2494 10.3862 61.3221 10.3447 61.3933 10.3039C61.6765 10.1422 61.9235 9.99761 62.1459 9.86488C62.3662 9.72843 62.5694 9.62165 62.7607 9.51264C62.952 9.40438 63.1337 9.29834 63.3183 9.18785C63.4103 9.13371 63.503 9.07439 63.6008 9.02026C63.6987 8.96686 63.8003 8.91199 63.9049 8.85489C64.1147 8.74069 64.3402 8.61908 64.5893 8.48931C64.2208 8.62056 63.8441 8.76887 63.4911 8.91347C63.1433 9.07661 62.8104 9.23308 62.4893 9.38361C62.2846 9.47557 62.0866 9.58383 61.8864 9.68765L61.2865 9.99836C61.1871 10.051 61.0855 10.0992 60.9869 10.1541L60.6918 10.3209L60.1007 10.6524C61.4096 9.76625 62.7896 8.98244 64.2319 8.3143L64.5233 8.17638L64.6694 8.10741L64.8177 8.04586C64.8719 8.02362 65.2753 7.86493 65.2552 7.84045C65.2004 7.77446 64.8222 7.95614 64.7488 7.97912C64.6531 8.0073 64.5597 8.04216 64.4662 8.07701L64.1852 8.18082L63.6238 8.38846L63.3428 8.49227L63.0669 8.60944L62.5152 8.84451C62.3321 8.9246 62.1452 8.99653 61.965 9.08329L61.4237 9.34283L61.0232 9.53489C60.8898 9.59866 60.7555 9.66169 60.6258 9.73437L59.8412 10.1533C61.1456 9.33541 62.513 8.6087 63.9523 8.04809L64.3513 7.89533C64.0035 7.9769 63.6958 8.0555 63.4199 8.12966C63.3509 8.1482 63.2842 8.16674 63.2189 8.18379C63.1552 8.20455 63.0929 8.22532 63.0321 8.2446C62.9112 8.28464 62.797 8.32246 62.688 8.35805C62.2505 8.50414 61.8834 8.61834 61.4934 8.77777C61.658 8.71622 61.8241 8.55382 61.9776 8.46706L62.4937 8.15858C62.6539 8.06218 62.817 7.96874 62.9809 7.87679C63.1448 7.78261 63.3168 7.70698 63.4852 7.62096L64.028 7.34881L64.2994 7.2094C64.3899 7.16268 64.4833 7.12412 64.5745 7.07963C64.943 6.91055 65.3101 6.73036 65.6801 6.55387L66.2897 6.28617C66.484 6.19941 66.7613 6.12155 66.9267 5.98955C66.7939 6.00958 66.6486 6.06964 66.507 6.09856Z" fill="#199B00"/>
</svg>
